<svg version="1" xmlns="http://www.w3.org/2000/svg" width="933.333" height="933.333" viewBox="0 0 700.000000 700.000000"><path d="M317.9 81.4c-.2.2-3.5.7-7.4 1.1-42.1 3.8-79.9 17.9-105.5 39.4-21.6 18.1-36.8 44.5-41.1 71.1-.5 3.6-1.2 7.6-1.4 9-.3 1.4-.5 7.9-.6 14.5-.2 29.6 6.1 51.3 20.7 71 20.2 27.2 55 45.2 115.4 59.9 13.8 3.3 28.1 6.7 30 7.1 5.5 1.1 51.5 11.1 60.5 13.1 6.1 1.4 12.1 2.7 13.5 3 1.4.2 3.4.8 4.5 1.1 1.1.4 2.5.8 3 .9 6.5 1.2 29.1 8.5 38 12.1 41.8 17.2 63.6 40.1 69.9 73.6 1.5 7.6 1.8 28.8.5 34.7-.4 1.9-1 5.4-1.3 7.7-.3 2.3-1.5 7.2-2.7 11-9.2 29-29.2 51.3-59.1 65.7-8.2 3.9-24 9.9-29.8 11.2-1.1.2-2.8.6-3.7.8-12.4 3-13.5 3.2-20.3 4.1-3 .5-6.2.9-7 1.1-19.2 2.9-62.9 2.5-82-.6-3-.6-7.2-1.2-9.4-1.6-21.5-3.3-48.3-13.6-65.6-25.3-27.6-18.5-45.8-45.4-54.5-80.1-2.2-9-3.4-15.3-4-21-.2-1.4-.6-4.5-.9-7-.3-2.5-.7-7.8-.8-11.7-.2-5.7-.6-7.3-1.8-7.4-13-.6-28-.2-28.4.8-.7 1.7.8 28.3 2 34.9 5.3 31.1 14.3 54.8 28.2 74.4 5.9 8.3 6.3 8.8 14.7 17.4 14.7 15.2 29.6 25.5 50.5 34.9 10.2 4.6 32 12 34.2 11.7.2 0 2.6.6 5.3 1.4 5.7 1.7 19.8 4.2 28.5 5.1 1.9.2 6.4.7 10 1.1 3.6.3 7.4.8 8.5 1 2.8.6 46.5.5 49.3 0 1.2-.3 6.1-.8 11-1.1 4.8-.4 9.4-.8 10.2-1 .8-.2 5.1-.8 9.5-1.5 22.1-3.3 47.2-11.2 66-20.7 19.1-9.7 39.2-26.5 50.5-42.2 11.1-15.3 20.1-37 22.5-53.6.3-2.3.8-5.2 1.1-6.5 1-4.8 1.2-31.6.3-39.5-6-49.4-36.9-81.6-98.4-102.4-7.9-2.7-41.8-12-48.5-13.4-1.4-.2-10.8-2.3-21-4.7-10.2-2.3-19.2-4.3-20-4.5-75.4-16.6-94.8-22.3-119-34.9-24.2-12.5-39.8-30.6-45.5-52.5-1.9-7.6-2.6-13.6-2.9-24.2-1.4-53.9 32.1-91.9 92.9-105.7 5-1.2 11.5-2.4 14.5-2.7 3-.3 6.2-.8 7-1 8.1-2.1 58.9-2.1 67 0 .8.2 4 .7 7 1 22 2.5 49.5 12 67.3 23.2 11.5 7.2 24.5 19.8 32.7 31.6 7.9 11.3 17.1 33.6 19.5 47.2 1.2 6.8 2.4 15.3 3 20.5.3 3 .8 5.6 1 5.8.3.4 20.4.5 29.3.3 1.9-.1 2.2-.5 1.8-2.9-.2-1.5-.7-5.4-1.1-8.7-.7-6.7-1.4-11.3-2-13.5-.2-.8-.7-3.1-1-5-.8-4.7-2.2-10-5-19-13.5-43.2-43.4-75.4-86.1-92.7-10.7-4.4-24.1-8.8-28.9-9.6-1.6-.3-6.1-1.2-10-2-6.3-1.4-13.4-2.6-25-4.3-4.6-.6-59-1.6-59.6-1z"/></svg>