<svg xmlns="http://www.w3.org/2000/svg" width="129.9" height="137" viewBox="0 0 129.9 137"><path fill="#FFF" d="M129.2 77c-.6-.9-1.5-1.6-2.5-1.9l-.9-.3c.2-2.9.3-5.9.3-9 0-17.5-5.9-33.9-16.5-46.3C98.8 6.9 84.4 0 69.2 0 53.9 0 39.6 6.9 28.8 19.4 18.2 31.8 12.3 48.2 12.3 65.7c0 3.1.1 6.2.2 9l-1 .3c-1 .3-1.9 1-2.5 1.9-.1.2-.2.4-.3.5L6.5 56.7l.1-.1c.6-.8.8-1.7.7-2.6v-.1c-.2-1-.7-1.8-1.4-2.4-.6-.5-1.4-.7-2.2-.7h-.4c-1 .1-1.8.7-2.4 1.5-.7.7-1 1.6-.9 2.5v.1c.2 1 .7 1.8 1.4 2.4l3 28.7c.1 1.3.7 2.5 1.6 3.4 1 1 2.1 1.6 3.4 1.8h.1l.8 7.2c.1 1 .5 1.9 1.1 2.6.6.7 1.4 1.3 2.4 1.5l1.7.5c.5 3.6 1.6 6.9 3.1 10.1 2.3 4.7 5.7 8.8 10.1 12.2 5.5 4.2 12 7.3 19.4 9.3 6.3 1.6 13.4 2.5 21.1 2.5 7.7 0 14.8-.8 21.1-2.5 7.4-1.9 14-5.1 19.4-9.3 4.4-3.4 7.7-7.5 10.1-12.2 1.6-3.2 2.6-6.6 3.1-10.1l1.6-.4c.9-.3 1.8-.8 2.4-1.5.6-.7 1-1.6 1.1-2.6l1.9-18.3c.1-1.2-.2-2.3-.7-3.2zm-14.8 14.1c-2.2 5.3-5.6 9.9-10 13.6-9.6 8.3-22.6 11.8-35.1 11.8s-25.5-3.4-35.1-11.8c-4.3-3.8-7.7-8.3-10-13.6-2.1-5.8-3-11.9-3-18 0-1.2 0-2.4.1-3.6C22.4 59.7 26.6 51 34 44.4c9.6-8.5 22.6-12 35.2-12 12.5 0 25.6 3.5 35.2 12 7.4 6.6 11.6 15.2 12.7 25.1.1 1.2.1 2.4.1 3.6.1 6.1-.8 12.2-2.8 18z"/><path fill-rule="evenodd" clip-rule="evenodd" fill="#37BBC7" d="M120.9 75.3c0 14.9-5.4 26.6-14.2 34.8-9.3 8.7-22.4 13.3-36.9 13.5h-1.4c-14.5-.1-27.6-4.8-36.9-13.5-8.8-8.2-14.2-19.9-14.2-34.8V73c0-15 5.4-26.8 14.2-35.1 9.4-8.9 22.8-13.6 37.6-13.6s28.1 4.7 37.6 13.6c8.8 8.3 14.2 20.1 14.2 35.1v2.3zM3.6 53.9c-.2 0-.3.1-.4.2-.1.1-.1.3-.1.4 0 .1.1.3.2.3.1.1.3.1.4.1.1 0 .3-.1.3-.2.1-.1.1-.3.1-.4.1-.1 0-.3-.1-.3-.1-.1-.3-.2-.4-.1zm-.1-1.2c-.5.1-.9.3-1.1.7-.3.3-.4.8-.4 1.2.1.5.3.8.7 1.1.2.2.4.3.6.3l3.2 29.7c.1.9.5 1.7 1 2.3.6.6 1.3 1 2.2 1.2l1.6.3.9 8.7c.1.6.3 1.1.6 1.5.4.4.8.7 1.4.9l3 .8c.4 3.8 1.5 7.5 3.1 10.8 2.2 4.4 5.4 8.3 9.5 11.5 5.6 4.3 12 7.2 18.7 8.9 6.7 1.7 13.7 2.4 20.6 2.4 6.9 0 13.9-.7 20.6-2.4 6.7-1.7 13.1-4.6 18.7-8.9 4.1-3.2 7.3-7.1 9.5-11.5 1.6-3.3 2.7-7 3.1-10.8l2.9-.8c.6-.2 1-.5 1.4-.9.4-.4.6-.9.6-1.5l1.9-18.3c.1-.7-.1-1.3-.4-1.8-.3-.5-.8-.9-1.4-1.1l-2.4-.8c.2-3.4.3-6.9.3-10.4 0-17.6-6.1-33.5-16-45C98.1 9.1 84.3 2 69.2 2S40.3 9.1 30.3 20.7c-9.9 11.5-16 27.4-16 45 0 3.5.1 7 .3 10.4l-2.4.9c-.6.2-1.1.6-1.4 1.1-.3.5-.5 1.1-.4 1.8l.9 8.4-1.3-.2c-.6-.1-1.2-.4-1.6-.8-.4-.4-.7-1-.7-1.6L4.4 55.9c.2-.1.4-.3.6-.5.2-.3.4-.8.3-1.2-.1-.5-.3-.8-.7-1.1-.3-.3-.7-.4-1.1-.4zm117.6 47.5c.1-.8.1-1.7.1-2.6v-1.1c0-1.1 0-2.1.1-3.2.1-1 .3-2 .5-3.1.8-3.8 1.4-7.7 1.7-11.8 0-.3.1-.7.1-1l2.1.7c.4.1.7.4.9.7.2.3.3.7.2 1.1l-1.9 18.3c0 .4-.2.7-.4.9-.2.2-.5.4-.8.5l-2.6.6zM14.7 77.3c0 .4.1.7.1 1.1.4 4.1.9 8 1.7 11.8.2 1.1.4 2.1.5 3.1.1 1 .1 2.1.1 3.2v1.1c0 .9 0 1.7.1 2.6l-2.6-.7c-.3-.1-.6-.3-.8-.5-.2-.2-.3-.6-.4-.9l-1.9-18.3c0-.4.1-.8.2-1.1.2-.3.5-.6.9-.7l2.1-.7zm55 51.7c5.4 0 10.3-.5 14.7-1.3l1.2 4.4c-5.2 1-10.5 1.4-15.8 1.5l-.1-4.6zm-1.1 4.5c-5.3 0-10.6-.5-15.8-1.5l1.2-4.4c4.4.8 9.3 1.3 14.7 1.3l-.1 4.6zm44-22.1l2.6 2.6c.5-.8.9-1.6 1.3-2.5 2-4.2 3.1-8.8 3.1-13.8-1.6 5.1-3.9 9.6-7 13.7zm2 3.5l-2.7-2.7c-2 2.5-4.4 4.8-7 6.8-1.4 1-2.8 2-4.4 2.9l2.2 3.8c1.7-1 3.3-2 4.8-3.2 2.9-2.2 5.3-4.7 7.1-7.6zm-12.8 11.4l-2.2-3.8c-4.1 2.2-8.7 3.9-14.1 5l1.2 4.4 2.7-.6c4.3-1.2 8.5-2.8 12.4-5zm-75.4-14.1l-2.7 2.7c1.9 2.8 4.3 5.4 7.1 7.6 1.5 1.2 3.2 2.3 4.8 3.2l2.2-3.8c-1.6-.9-3-1.9-4.4-2.9-2.7-2-5-4.2-7-6.8zm-3.3 1.8l2.6-2.6c-3-4-5.4-8.6-7.1-13.6 0 5 1.1 9.6 3.1 13.8.4.8.9 1.6 1.4 2.4zm15.6 8.5l-2.2 3.8c3.9 2.2 8.1 3.7 12.4 4.9.9.2 1.8.5 2.7.6l1.2-4.4c-5.3-1.1-10-2.7-14.1-4.9zM22.5 53.7c2.4-4.5 5.5-8.5 9.3-11.8 9.4-8.3 22.7-12.8 37.4-12.8s28 4.5 37.4 12.8c3.8 3.3 6.9 7.3 9.3 11.8-2.4-5.7-5.8-10.6-10.1-14.6-9.2-8.6-22.2-13.2-36.6-13.2-14.4 0-27.4 4.6-36.6 13.2-4.3 4-7.7 8.8-10.1 14.6zm83.2 54.7c1.3-1.3 2.5-2.6 3.7-4-.9 1-1.9 1.9-2.9 2.8-9.4 8.2-22.6 12.6-37.3 12.6-14.7 0-27.9-4.4-37.3-12.6-1-.9-2-1.8-2.9-2.8 1.1 1.4 2.4 2.8 3.7 4 9 8.8 21.7 13.5 35.9 13.7H70c14-.2 26.7-4.9 35.7-13.7zm10.6-16.6c2-5.6 3.1-11.8 3.1-18.8 0-1.3 0-2.6-.1-3.8-1.2-11.1-6.1-20-13.5-26.5-9.2-8.1-22.2-12.5-36.7-12.5-14.5 0-27.5 4.4-36.7 12.5-7.3 6.5-12.2 15.4-13.4 26.5-.1 1.2-.1 2.5-.1 3.8 0 6.9 1.1 13.2 3.1 18.8 2.4 5.7 6 10.5 10.6 14.5 9.2 8 22.2 12.3 36.6 12.3s27.4-4.3 36.6-12.3c4.5-4 8.1-8.8 10.5-14.5zm3.5 2.2c0-.3 0-.6.1-.8.1-1.1.3-2.2.5-3.3.8-3.7 1.4-7.6 1.7-11.6.4-4 .5-8.2.5-12.5 0-17.2-6-32.8-15.7-44.1-9.7-11.2-23-18.2-37.7-18.2-14.7 0-28.1 7-37.7 18.2C21.8 33 15.8 48.5 15.8 65.8c0 4.3.2 8.5.5 12.5.4 4 .9 7.9 1.7 11.6.2 1.1.4 2.2.5 3.3 0 .3 0 .6.1.8 2.8 9.9 7.7 18.2 15.5 24.2 8.1 6.1 19.5 9.7 35.1 9.7 15.6 0 27-3.6 35.1-9.7 7.8-5.9 12.6-14.3 15.5-24.2z"/></svg>