<svg xmlns="http://www.w3.org/2000/svg" style="width:0; height:0; visibility:hidden;">
	<symbol id="cross" viewBox="0 0 22.313 22.094">
		<path id="Rectangle_8_copy_2" data-name="Rectangle 8 copy 2" class="cls-1" d="M67.021 41.4l8.585 8.585a1.5 1.5 0 1 1-2.121 2.121L64.9 43.521l-8.585 8.585a1.5 1.5 0 0 1-2.121-2.121l8.585-8.585-8.385-8.385a1.5 1.5 0 1 1 2.121-2.121l8.385 8.384 8.385-8.385a1.5 1.5 0 0 1 2.121 2.121z" transform="translate(-53.75 -30.469)"/>
	</symbol>
	<symbol id="facebook" viewBox="0 0 46 46">
		<path class="cls-1" d="M19.6 36.55h5.29a.817.817 0 0 0 .82-.82v-11.9h2.75a.815.815 0 0 0 .81-.74l.47-4.49a.887.887 0 0 0-.21-.64.842.842 0 0 0-.61-.27h-3.21v-1.82c0-.37.12-.4.3-.4h2.84a.817.817 0 0 0 .82-.82v-4.37a.815.815 0 0 0-.81-.82l-3.92-.01a5.756 5.756 0 0 0-4.96 2.22 6.691 6.691 0 0 0-1.2 3.94v2.08h-1.69a.826.826 0 0 0-.83.82v4.5a.826.826 0 0 0 .83.82h1.69v11.9a.817.817 0 0 0 .82.82zm-1.69-14.36v-2.85h1.69a.826.826 0 0 0 .82-.83v-2.9a5.245 5.245 0 0 1 .88-2.97 4.226 4.226 0 0 1 3.63-1.55l3.1.01v2.73h-2.02a1.882 1.882 0 0 0-1.94 2.04v2.65a.817.817 0 0 0 .82.82h3.12l-.3 2.85h-2.82a.817.817 0 0 0-.82.82v11.9h-3.65v-11.9a.824.824 0 0 0-.82-.82h-1.69zM40.87 8.52a.821.821 0 0 0-1.28 1.03A21.358 21.358 0 0 1 8.76 38.92a.831.831 0 0 0-1.16.06.822.822 0 0 0 .07 1.16 23 23 0 0 0 33.2-31.62zM1.64 23a21.359 21.359 0 0 1 35.6-15.92.831.831 0 0 0 1.16-.06.822.822 0 0 0-.07-1.16 23 23 0 0 0-33.2 31.62.825.825 0 0 0 .64.31.876.876 0 0 0 .52-.19.822.822 0 0 0 .12-1.15A21.39 21.39 0 0 1 1.64 23z"/>
	</symbol>
	<symbol id="hamburger" viewBox="0 0 30 25">
		<path id="Rectangle_8_copy_2" data-name="Rectangle 8 copy 2" class="cls-1" d="M51.5 29h27a1.5 1.5 0 1 1 0 3h-27a1.5 1.5 0 1 1 0-3zm0 11h27a1.5 1.5 0 1 1 0 3h-27a1.5 1.5 0 1 1 0-3zm0 11h27a1.5 1.5 0 0 1 0 3h-27a1.5 1.5 0 0 1 0-3z" transform="translate(-50 -29)"/>
	</symbol>
	<symbol id="instagram" viewBox="0 0 46 46">
		<path class="cls-1" d="M40.87 8.52a.821.821 0 0 0-1.28 1.03A21.358 21.358 0 0 1 8.76 38.92a.831.831 0 0 0-1.16.06.822.822 0 0 0 .07 1.16 23 23 0 0 0 33.2-31.62zM1.64 23a21.359 21.359 0 0 1 35.6-15.92.831.831 0 0 0 1.16-.06.822.822 0 0 0-.07-1.16 23 23 0 0 0-33.2 31.62.825.825 0 0 0 .64.31.876.876 0 0 0 .52-.19.822.822 0 0 0 .12-1.15A21.39 21.39 0 0 1 1.64 23zM13.96 9.82a4.108 4.108 0 0 0-4.1 4.11V32a4.114 4.114 0 0 0 4.1 4.11h18.08a4.114 4.114 0 0 0 4.1-4.11V13.93a4.108 4.108 0 0 0-4.1-4.11H13.96zm18.08 24.64H13.96A2.465 2.465 0 0 1 11.5 32V19.68h4.88a7.39 7.39 0 1 0 13.24 0h4.88V32a2.465 2.465 0 0 1-2.46 2.46zm-3.29-11.5A5.75 5.75 0 1 1 23 17.21a5.757 5.757 0 0 1 5.75 5.75zm5.75-9.03v4.11h-6a7.358 7.358 0 0 0-11 0h-6v-4.11a2.462 2.462 0 0 1 1.64-2.32v4.78a.825.825 0 0 0 1.65 0v-4.93h.82v4.93a.82.82 0 1 0 1.64 0v-4.93h14.79a2.473 2.473 0 0 1 2.46 2.47zM23 18.86a.82.82 0 1 0 0 1.64 2.465 2.465 0 0 1 2.46 2.46.825.825 0 1 0 1.65 0 4.114 4.114 0 0 0-4.11-4.1zm5.75-5.75v3.28a.817.817 0 0 0 .82.82h3.29a.817.817 0 0 0 .82-.82v-3.28a.817.817 0 0 0-.82-.82h-3.29a.817.817 0 0 0-.82.82zm1.64.82h1.65v1.64h-1.65v-1.64z"/>
	</symbol>
	<symbol id="twitter" viewBox="0 0 46 46">
		<path class="cls-1" d="M40.87 8.52a.821.821 0 0 0-1.28 1.03A21.358 21.358 0 0 1 8.76 38.92a.831.831 0 0 0-1.16.06.822.822 0 0 0 .07 1.16 23 23 0 0 0 33.2-31.62zM1.64 23a21.359 21.359 0 0 1 35.6-15.92.831.831 0 0 0 1.16-.06.822.822 0 0 0-.07-1.16 23 23 0 0 0-33.2 31.62.825.825 0 0 0 .64.31.876.876 0 0 0 .52-.19.822.822 0 0 0 .12-1.15A21.39 21.39 0 0 1 1.64 23zm36.01-6.29a.812.812 0 0 0-.06-.98.83.83 0 0 0-.96-.23l-.06.03a5.877 5.877 0 0 0 .47-1.09.82.82 0 0 0-1.2-.96 9.79 9.79 0 0 1-2.64 1.08 6.053 6.053 0 0 0-10.12 4.47c0 .09.01.19.01.28a14.031 14.031 0 0 1-9.18-5.07.818.818 0 0 0-.7-.3.843.843 0 0 0-.65.41 6.1 6.1 0 0 0-.82 3.04 6.028 6.028 0 0 0 .73 2.87.89.89 0 0 0-.36.11.836.836 0 0 0-.41.71v.07a6.039 6.039 0 0 0 2.12 4.59.3.3 0 0 0-.08.08.819.819 0 0 0-.17.79 6.022 6.022 0 0 0 3.52 3.77 9.622 9.622 0 0 1-4.34 1.02 11.122 11.122 0 0 1-1.16-.06.806.806 0 0 0-.86.54.8.8 0 0 0 .33.96 15.617 15.617 0 0 0 8.45 2.48 15.025 15.025 0 0 0 11.65-5.12 16.233 16.233 0 0 0 4.03-10.57v-.27a11.477 11.477 0 0 0 2.46-2.65zm-3.77 1.58a.808.808 0 0 0-.34.71c.01.2.01.41.01.63a14.538 14.538 0 0 1-3.62 9.48 13.436 13.436 0 0 1-10.42 4.57 13.891 13.891 0 0 1-4.71-.82 11.236 11.236 0 0 0 4.94-2.22.833.833 0 0 0 .27-.91.8.8 0 0 0-.76-.56 4.413 4.413 0 0 1-3.55-1.91 5.641 5.641 0 0 0 1.23-.2.81.81 0 0 0 .6-.82.8.8 0 0 0-.66-.77 4.407 4.407 0 0 1-3.35-3.11 6.026 6.026 0 0 0 1.34.2.82.82 0 0 0 .81-.57.84.84 0 0 0-.32-.94 4.378 4.378 0 0 1-1.96-3.66 4.121 4.121 0 0 1 .14-1.11A15.661 15.661 0 0 0 24 21.04a.816.816 0 0 0 .67-.3.792.792 0 0 0 .17-.71 4.714 4.714 0 0 1-.11-1 4.407 4.407 0 0 1 7.62-3.01.828.828 0 0 0 .75.24c.31-.06.62-.13.92-.22a4.072 4.072 0 0 1-.48.33.819.819 0 0 0-.35.97.8.8 0 0 0 .87.55c.13-.01.27-.03.4-.05-.19.16-.38.31-.58.45z"/>
	</symbol>
</svg>