<svg xmlns="http://www.w3.org/2000/svg" width="144" height="36" viewBox="0 0 144 36"><defs><style>.cls-1{fill:#fff;fill-rule:evenodd}</style></defs><path id="logo" class="cls-1" d="M677.709 24.584h-1.557V52.3h1.557V24.584zM674.1 50.9a3.556 3.556 0 0 1-1.012.155c-1.441 0-1.441-.973-1.441-2.141V38.6c0-1.674.04-3.309-1.128-4.633-1.246-1.4-3.349-2.141-5.918-2.141-4.672 0-7.4 2.336-7.67 6.658h1.479c.312-3.5 2.336-5.334 6.035-5.334 3.66 0 5.645 1.6 5.645 4.594a4.663 4.663 0 0 1-.272 2.064c-.545.856-1.129.934-6.346 1.363-3.816.312-7.631 1.6-7.631 6.112 0 3.5 2.453 5.568 6.579 5.568 3.172 0 5.3-1.05 6.883-3.283a.511.511 0 0 1 .926.265c.116 1.936.72 2.55 2.275 2.55a4.282 4.282 0 0 0 1.6-.233V50.9zm-36.711-18.53h-1.48V60h1.558v-9.889a.511.511 0 0 1 .938-.279A7.325 7.325 0 0 0 644.864 53c5.334 0 8.877-4.2 8.877-10.551 0-6.463-3.5-10.629-8.916-10.629a7.181 7.181 0 0 0-6.494 3.357.511.511 0 0 1-.942-.274V32.37zm-5.716.117C631.284 26.569 627.2 24 621.4 24c-5.957 0-9.577 2.8-9.577 7.319 0 5.607 5.255 6.424 9.616 7.436 3.621.818 9.305 1.44 9.305 6.307 0 4.049-3.232 6.424-8.682 6.424-5.762 0-9.344-2.609-9.461-8.371H611c0 6.7 4.4 9.772 10.979 9.772 6.5 0 10.395-2.959 10.395-7.9 0-5.451-4.828-6.463-9.11-7.436-5.529-1.246-9.773-1.791-9.773-6.268 0-3.621 2.882-5.8 7.787-5.8 4.867 0 8.41 1.908 8.721 7.008h1.674zm114.139-.7c-5.606 0-9.305 4.2-9.305 10.551 0 6.424 3.621 10.55 9.266 10.55 5.607 0 9.227-4.049 9.227-10.434 0-6.502-3.62-10.668-9.188-10.668zm-12.529-7.2h-1.557V52.3h1.557V24.584zM729.67 50.9a3.567 3.567 0 0 1-1.013.155c-1.44 0-1.44-.973-1.44-2.141V38.6c0-1.674.039-3.309-1.129-4.633-1.246-1.4-3.349-2.141-5.918-2.141-4.672 0-7.4 2.336-7.67 6.658h1.48c.311-3.5 2.336-5.334 6.034-5.334 3.66 0 5.645 1.6 5.645 4.594a4.663 4.663 0 0 1-.272 2.064c-.545.856-1.129.934-6.346 1.363-3.816.312-7.631 1.6-7.631 6.112 0 3.5 2.453 5.568 6.58 5.568 3.172 0 5.294-1.05 6.882-3.283a.511.511 0 0 1 .926.265c.116 1.936.72 2.55 2.276 2.55a4.289 4.289 0 0 0 1.6-.233V50.9zM683.5 32.37h-1.479V52.3h1.557V40.975c0-4.789 2.3-7.709 6.113-7.709a4.5 4.5 0 0 1 4.243 2.375 7.2 7.2 0 0 1 .584 3.5V52.3h1.558V40.04a7.159 7.159 0 0 1 1.79-5.178 5.485 5.485 0 0 1 4.089-1.6c3.7 0 5.061 2.336 5.061 5.568V52.3h1.557V38.249c0-3.738-2.219-6.424-6.307-6.424a6.72 6.72 0 0 0-6.463 4.283 5.547 5.547 0 0 0-5.8-4.283 6.807 6.807 0 0 0-6.5 4.594V32.37z" transform="translate(-611 -24)"/></svg>