<svg id="Группа_1" data-name="Группа 1" xmlns="http://www.w3.org/2000/svg" width="270" height="145" viewBox="0 0 270 145"><defs><style>.cls-1,.cls-2{fill:#37bbc7;fill-rule:evenodd}.cls-2{fill:#ffd11a}</style></defs><path class="cls-1" d="M1094.61 2667.22a94.889 94.889 0 0 0-9.07 4.19 65.994 65.994 0 0 0-15.08 10.82q-1.815 1.77-3.53 3.78c-.31.36-.6.72-.9 1.08a.177.177 0 0 0 .19.28c.45-.15.89-.3 1.33-.46q2.52-.915 4.78-2a65.906 65.906 0 0 0 15.39-10.37 92.442 92.442 0 0 0 7.08-7.04.168.168 0 0 0 .02-.22.172.172 0 0 0-.21-.06zm1.57.5a96.2 96.2 0 0 1-7.69 7.69 67.617 67.617 0 0 1-14.61 10.04l.65.94a.291.291 0 0 0 .31.12 134.038 134.038 0 0 0 13.69-4.18v-.01l.51-.18a181.274 181.274 0 0 0 16.95-7.19l2.46-1.19-.01.02a184.038 184.038 0 0 0 22.6-13.41 180.2 180.2 0 0 0 16.4-12.79 139.358 139.358 0 0 0 12.18-12.05 221.855 221.855 0 0 0 13.45-18.11c2.46-3.78 4.21-6.8 3.89-7.26s-3.76.13-8.16 1.12a224.276 224.276 0 0 0-21.64 6.29 141.065 141.065 0 0 0-15.54 7.22 181.629 181.629 0 0 0-17.64 10.89l-.05.04c-26.49 18.42-41.2 39.27-44.09 43.59a.3.3 0 0 0 .01.33l.65.94a67.95 67.95 0 0 1 14.5-10.2 94.6 94.6 0 0 1 9.88-4.52l3.46-1.37a.288.288 0 0 1 .32.46l-2.48 2.77zm39.25-28.68a5.914 5.914 0 1 1-3.81-2.45 5.872 5.872 0 0 1 3.81 2.45zm-2.47 7.49a4.121 4.121 0 0 0 1.84-2.83 5.034 5.034 0 0 0-.99-3.53 4.954 4.954 0 0 0-2.96-2.16 4.113 4.113 0 0 0-3.29.73 4.743 4.743 0 0 0-.89 6.39 4.744 4.744 0 0 0 6.29 1.4zm-4.54 5.27a8.989 8.989 0 0 1-7.38-10.63 10.588 10.588 0 0 1 4.27-6.12 9.058 9.058 0 1 1 10.33 14.88 10.614 10.614 0 0 1-7.22 1.87zm9.92-7.98a7.939 7.939 0 0 0-1.29-5.91 7.883 7.883 0 1 0 1.29 5.91zm-31.86 32.22q-5.7 2.76-11.55 5.1c-1.8.72-3.64 1.43-5.5 2.11-.84 2.3-4.3 12.31-3.97 21.14a1.184 1.184 0 0 1-.33.86c-.95.98-1.83 1.98-2.69 3a.464.464 0 0 0 .51.74 59.665 59.665 0 0 0 15.21-8.1 78.627 78.627 0 0 0 11.6-10.54.454.454 0 0 0 .04-.58.471.471 0 0 0-.56-.17c-.84.34-1.68.7-2.51 1.06a1.155 1.155 0 0 1-1.53-.6 1.043 1.043 0 0 1-.08-.25c-1.01-5.05.31-10.54 1.36-13.77zm-4.84 16.43a.585.585 0 0 1 .78.25.626.626 0 0 1 .07.22.582.582 0 0 1-.32.57q-2.46 1.275-4.81 2.73c-.61.38-1.21.76-1.8 1.16l-.13.08a63.023 63.023 0 0 0-6.02 4.56.578.578 0 1 1-.75-.88 61.525 61.525 0 0 1 6.26-4.73 73.042 73.042 0 0 1 6.72-3.96zm-23.67-25.73a183.891 183.891 0 0 1 12.72-13.48c-3.39-.14-9.02-.81-13.41-3.53a.9.9 0 0 1-.19-.15 1.168 1.168 0 0 1-.03-1.65c.63-.65 1.26-1.31 1.87-1.98a.468.468 0 0 0 .04-.58.462.462 0 0 0-.56-.17 78.055 78.055 0 0 0-13.92 7.21 59.557 59.557 0 0 0-12.89 11.43.471.471 0 0 0 .52.74c1.26-.45 2.5-.93 3.75-1.48a1.193 1.193 0 0 1 .91-.01c8.16 3.4 18.76 3.64 21.19 3.65zm-5.14-15.49a.574.574 0 0 1 .82.04.581.581 0 0 1 .15.34.552.552 0 0 1-.19.48 75.442 75.442 0 0 1-6.04 4.93 64.6 64.6 0 0 1-6.62 4.22.582.582 0 1 1-.56-1.02 61.082 61.082 0 0 0 6.49-4.14 72.748 72.748 0 0 0 5.95-4.85zm13.25 21.4a.582.582 0 0 1 .81.15.558.558 0 0 1 .1.28.582.582 0 0 1-.25.53l-12.15 8.44a.58.58 0 0 1-.81-.14.59.59 0 0 1 .15-.81l12.15-8.45z" transform="translate(-907 -2610)"/><path id="Shape_24_copy" data-name="Shape 24 copy" class="cls-2" d="M1055.96 2686.34a1.164 1.164 0 0 1 1.34.95c.06.34-6.24 10.17-6.98 11.4 1.26-.21 13.12-2.46 13.15-2.44a1.168 1.168 0 0 1 .54 1.56c-8.15 16.56-23.43 30.76-41.48 40.87a129.526 129.526 0 0 1-46.894 15.58c-15.97 1.91-31.458.22-44.137-6.03a50.421 50.421 0 0 1-22.168-20.91l-2.331-4.17 3.987 2.63c36.681 24.21 61.169 7.06 89.743-12.95l4.66-3.25a172.905 172.905 0 0 1 26.24-15.19c10.44-4.79 18.83-7.13 24.33-8.05zm-72.588 53.37a118.392 118.392 0 0 0 32.778-12.45 107.61 107.61 0 0 0 18.14-12.68l-9.67 1.58 3.06-5.12a169.285 169.285 0 0 0-14.82 9.27l-4.65 3.25c-7.99 5.58-16.181 11.36-24.838 16.15zm52.908-36.65c-.19.08-.37.17-.55.25a160.723 160.723 0 0 0-24.74 14.32l-4.65 3.24c-13.573 9.48-28.091 19.85-44.3 24.31a91.119 91.119 0 0 0 12.424-.67 119.154 119.154 0 0 0 43.272-14.39 105.036 105.036 0 0 0 26.25-20.45l-12.94 2.12 5.23-8.73zm15.25-12.45a108.388 108.388 0 0 0-18.53 6.76 166.857 166.857 0 0 0-25.74 14.89l-4.66 3.25c-13.934 9.73-29.512 20.98-46.463 24.35-13.911 2.76-26.633-.17-38.57-6.39a47.685 47.685 0 0 0 15.375 11.83c12.91 6.36 28.2 7.4 42.3 5.71a125.921 125.921 0 0 0 45.693-15.18c14.89-8.35 29.28-20.4 37.97-35.42-.49.1-.98.19-1.46.28-2.19.41-4.4.87-6.6 1.23l-6.95 1.14 3.62-6.05c1.14-1.9 2.37-3.78 3.55-5.66.15-.24.31-.49.46-.74zm-7.4 5.7c-3.39 1.22-6.69 2.61-9.77 4.03a163.476 163.476 0 0 0-25.24 14.61l-4.65 3.24c-14.4 10.05-30.173 21.4-47.7 24.88a56.258 56.258 0 0 1-20 .39c11.807 5.08 25.492 5.81 38.087 4.3a122.451 122.451 0 0 0 44.483-14.79c12.23-6.85 24.19-16.32 32.65-27.93-.2.04-.41.07-.61.1l-13.91 2.29 6.66-11.12z" transform="translate(-907 -2610)"/></svg>