<svg id="Группа_2" data-name="Группа 2" xmlns="http://www.w3.org/2000/svg" width="146.562" height="121.16" viewBox="0 0 146.562 121.16"><defs><style>.cls-1,.cls-2{fill:#845988;fill-rule:evenodd}.cls-2{fill:#e5e1d7}</style></defs><path id="Shape_15_копия" data-name="Shape 15 копия" class="cls-1" d="M693 2347l3.37 5.78a.825.825 0 0 1-.008.82.881.881 0 0 1-.128.17.827.827 0 0 1-.58.24h-25.31a.826.826 0 0 1-.708-.41.844.844 0 0 1-.008-.83L673 2347h20z" transform="translate(-614.719 -2304)"/><path class="cls-2" d="M733 2334a1.154 1.154 0 0 1 1 1 1.028 1.028 0 0 1-1 1h-2v4a1.323 1.323 0 0 1-1 1h-8a1.154 1.154 0 0 1-1-1v-4h-1v4a.924.924 0 0 1-1 1h-9a.837.837 0 0 1-1-.61V2336h-1v4a.854.854 0 0 1-1 1h-9a1.154 1.154 0 0 1-1-1v-4h-2v10c0 .75.176 1-1 1h-1l3.37 5.78a.825.825 0 0 1-.008.82.881.881 0 0 1-.128.17.827.827 0 0 1-.58.24L684 2354v4h-2v-4l-11.656.01a.826.826 0 0 1-.708-.41.844.844 0 0 1-.008-.83L673 2347h-1c-.453 0-1 .46-1 0v-11h-2v4a.924.924 0 0 1-1 1h-9a1.154 1.154 0 0 1-1-1v-4h-1v4a.851.851 0 0 1-1 1h-9a1.153 1.153 0 0 1-1-1v-4h-1v4a.874.874 0 0 1-1 1h-8c-.838 0-1-.26-1-1v-4h-2a1 1 0 0 1 0-2h2l-.113-7.05-2.069-.01a.923.923 0 0 1-.818-.94 1.153 1.153 0 0 1 1-1h2l-.113-4.16A1.13 1.13 0 0 1 636 2320h8a1.212 1.212 0 0 1 1 1v4h1v-4a1 1 0 0 1 1-1h9a1.154 1.154 0 0 1 1 1v4h1v-4a1.152 1.152 0 0 1 1-1l8.732.01a1.463 1.463 0 0 1 1.268.99v4h2v-10s7.812-11 9-11h6c1.625 0 9 11 9 11v10h2v-4a2.111 2.111 0 0 1 .677-.74.76.76 0 0 1 .581-.24L707 2320a1.153 1.153 0 0 1 1 1v4h1v-4.15a.825.825 0 0 1 .822-.83h8.895a1.474 1.474 0 0 1 1.283.98v4h1v-4a.991.991 0 0 1 1-1h8a1.153 1.153 0 0 1 1 1v4h2a1.153 1.153 0 0 1 1 1 1 1 0 0 1-1 1h-2v7h2zm-90-12h-6v17h6v-17zm3 5h-1v7h1v-7zm9-5h-7v17h7v-17zm3 5h-1v7h1v-7zm9-5h-7v17h7v-17zm4 5h-2v7h2v-7zm1 25h22l-3-5h-16zm14-46h-6l-6 8h18zm7 10h-20v2h20v-2zm0 3h-20v23h4v-14c0-1.48 1.075-2.46 2.112-3.51a5.806 5.806 0 0 1 7.767 0c1.037 1.05 2.121 2.03 2.121 3.51v14h4v-23zm-14 9v14h8v-14a3.182 3.182 0 0 0-1.283-2.34 3.866 3.866 0 0 0-2.722-1.14 3.82 3.82 0 0 0-2.721 1.14A3.171 3.171 0 0 0 679 2328zm14 15h-20v2h20v-2zm4-16h-2v7h2v-7zm9-5h-7v17h7v-17zm3 5h-1v7h1v-7zm9-5h-7v17h7v-17zm3 5h-1v7h1v-7zm8-5h-6v17h6v-17zm-58.732 37.42l-55 35-.537-.84 55-35zm8.208-.27l-21 66-.952-.3 21-66zm19.011 37.74l-.974.22-8-35 .974-.22zm-2.214-37.31l66 43-.546.84-66-43z" transform="translate(-614.719 -2304)"/></svg>