<svg id="Группа_1" data-name="Группа 1" xmlns="http://www.w3.org/2000/svg" width="268.5" height="162.25" viewBox="0 0 268.5 162.25"><defs><style>.cls-1,.cls-2{fill:#37bbc7;fill-rule:evenodd}.cls-2{fill:#e5e1d7}</style></defs><path class="cls-1" d="M676.2 3027.01a32.805 32.805 0 0 1-25.18-23.02.867.867 0 0 1 .157-.78.828.828 0 0 1 .735-.15h62.149a.828.828 0 0 1 .735.15.87.87 0 0 1 .158.78 32.906 32.906 0 0 1-25.179 23.02H676.2z" transform="translate(-536.719 -2908.75)"/><path class="cls-2" d="M711.227 2988.45l-.454-.9 94-48 .454.9zm-18.714-15.56l9-39 .974.22-9 39zm-8.558 10.94v2.18L701 3003h14a.817.817 0 0 1 .757.16.947.947 0 0 1 .162.83 34.219 34.219 0 0 1-25.929 24.3L700 3050h4a1.033 1.033 0 0 1 1 1v9a1.04 1.04 0 0 1-1 1h-4v8h17l.046.1a.914.914 0 0 1 .954.9.992.992 0 0 1-.954 1h-68.092a.956.956 0 0 1-.954-.95 1.079 1.079 0 0 1 1-1.05h17v-8h-4a1.033 1.033 0 0 1-1-1v-9a1.033 1.033 0 0 1 1-1h4l10.011-21.71a34.121 34.121 0 0 1-25.93-24.3.941.941 0 0 1 .162-.83.816.816 0 0 1 .757-.16h14l17.046-16.99v-2.18a3.495 3.495 0 1 1 1.909 0zm1.43 6.3L690 3003h8zM668 3069h30v-4h-30v4zm0-6h30v-2h-30v2zm-5-11v7h40v-7h-40zm21.587-23.5a1.587 1.587 0 1 0-1.587 1.58 1.586 1.586 0 0 0 1.587-1.58zM668 3050h14l.046-18.15a3.5 3.5 0 1 1 1.908 0L684 3050h14l-11.031-23.84a4.335 4.335 0 0 0-7.937 0zm8.794-23.49l.491-1.12a6.25 6.25 0 0 1 11.43 0l.491 1.12c10.414-2.03 19.608-8.93 23.794-18.51h-59a31.094 31.094 0 0 0 22.794 18.51zM652 3005c.128.4.54.49.684.88h60.631c.143-.39.558-.48.685-.88h-62zm16-2h8l4.618-12.87zm10 0h10l-5-13.83zm5-24.1a1.585 1.585 0 1 0 1.587 1.58 1.585 1.585 0 0 0-1.587-1.58zm-49.442-69.67l.884-.46 35 66-.884.46zm21.168 82.19l-118-67 .548-.84 118 67z" transform="translate(-536.719 -2908.75)"/></svg>