<svg xmlns="http://www.w3.org/2000/svg" width="83.031" height="58" viewBox="0 0 83.031 58"><defs><style>.cls-1{fill:#e5e1d7;fill-rule:evenodd}</style></defs><path class="cls-1" d="M82.744 42.04l-11.4 11.49a.868.868 0 0 1-1.239 0l-9.261-9.34-8.666 8.7a17.254 17.254 0 0 1-24.513 0l-.691-.69H25.6a9.688 9.688 0 0 1-9.637-9.71v-1.48L1.8 26.75a6.243 6.243 0 0 1 0-8.78l6.241-6.29a13.552 13.552 0 1 1 26.566 5.22l3.476 3.51h3.39v-4.72a6.92 6.92 0 0 1 2.018-4.91 6.9 6.9 0 0 1 11.776 4.91v3.91a9.859 9.859 0 0 1 1.8.07l8.5 1.17a4.968 4.968 0 0 1 5.382-3.41l3.766.52a.885.885 0 0 1 .75 1l-2.18 16.09a.879.879 0 0 1-.338.59.922.922 0 0 1-.531.18c-.009 0-.187-.02-.451-.06l1.756 1.77a4.928 4.928 0 0 1 6.329.57l2.688 2.71a.878.878 0 0 1 .006 1.24zm-21.026.54l1.276 1.28 7.276-7.33-3.788-3.81a6.571 6.571 0 0 1-4.764 3.17v6.69zm2.519-9.81a4.766 4.766 0 0 0 .866-1.19 7.857 7.857 0 0 0-4.261-1.26 7.764 7.764 0 0 0-4.279 1.28 4.744 4.744 0 0 0 .859 1.17 4.8 4.8 0 0 0 6.815 0zM25.453 50.43c.047 0 9.116 0 9.185-.01V40.07c-.069 0-.137-.01-.206-.01H29.24l-4.368 4.4a6.3 6.3 0 0 1 .581 5.97zm-1.828-.25a4.6 4.6 0 0 0-.755-5.4 4.458 4.458 0 0 0-5.039-.92 7.952 7.952 0 0 0 5.794 6.32zm-5.915-8.17a6.184 6.184 0 0 1 5.985 1.14L28 38.81v-10.3a.877.877 0 1 1 1.753 0v9.79h4.679a6.95 6.95 0 0 1 0 13.9h-4.953a15.518 15.518 0 0 0 21.457-.56l9.03-9.06V35.9a6.5 6.5 0 0 1-3.783-1.88 6.431 6.431 0 0 1-1-1.29l-9.731 9.81a.88.88 0 0 1-1.239-1.25l2.122-2.14L30.81 23.51a13.43 13.43 0 0 1-9.36 3.79 13.611 13.611 0 0 1-3.743-.53v15.24zm18.68-1.56v9.59a5.2 5.2 0 0 0 0-9.59zm19-10.19l-1.584-2.1a6.443 6.443 0 0 1-2.945.71 6.958 6.958 0 0 1-1.281-.12 6.5 6.5 0 0 1-1.627-.55.035.035 0 0 0 0 .02l-.254 1.87 3.815 3.84 2.513-2.53a10.518 10.518 0 0 1 1.367-1.14zm-39.436 8.25v-6.22l-3.614-3.64-3.086 3.11zm-7.939-8L11.1 27.4l-1.382-1.39-3.086 3.11zm-6.267-8.15a4.426 4.426 0 0 0 1.291 3.14l2.355 2.37 3.085-3.11-5.469-5.51a4.444 4.444 0 0 0-1.258 3.11zm6.168-8.05L4.248 18l11.706 11.8v-3.68A13.661 13.661 0 0 1 7.92 14.31zm1.737-.66a11.783 11.783 0 0 0 22.9 4.02 12.751 12.751 0 0 1-7.241 2.37 10.718 10.718 0 0 1-2.468-.28 4.563 4.563 0 0 1-1.063 1.71 4.478 4.478 0 0 1-6.35 0 4.549 4.549 0 0 1 0-6.4 4.472 4.472 0 0 1 .935-.72c-1.643-3.79-.831-8.5 2.056-12.19a11.893 11.893 0 0 0-8.765 11.49zm11.688 4.62a2.746 2.746 0 0 0-.8-1.95 2.72 2.72 0 0 0-3.873 0 2.774 2.774 0 0 0 0 3.9 2.744 2.744 0 0 0 3.873 0 2.764 2.764 0 0 0 .804-1.95zm.109-16.5h-.291c-.12.11-.24.23-.363.35-3.328 3.36-4.412 8.06-2.762 11.66a5.346 5.346 0 0 1 .569-.04 4.425 4.425 0 0 1 3.175 1.33 4.488 4.488 0 0 1 1.3 2.93 10.87 10.87 0 0 0 10.1-3.13 12.007 12.007 0 0 0 .061-1.22A11.852 11.852 0 0 0 21.454 1.77zM34 18.79a13.712 13.712 0 0 1-2 3.42L47.578 37.9l2.7-2.72zm5.836 3.38l6.3 6.35.074-.54a10.128 10.128 0 0 1 .32-1.49c-.043-.03-4.311-4.32-4.311-4.32H39.84zm12.17-10.14a5.141 5.141 0 0 0-8.4 1.69h9.522a5.1 5.1 0 0 0-1.118-1.69zm1.5 3.45H43.235l-.005 5.21 4.022 4.05a9.685 9.685 0 0 1 2.683-3.18 9.556 9.556 0 0 1 3.583-1.71s-.003-4.3-.005-4.37zm2.075 5.87a7.749 7.749 0 0 0-4.593 1.62 7.9 7.9 0 0 0-2.588 3.47 4.99 4.99 0 0 0 1.515.58 4.733 4.733 0 0 0 3.616-.74 4.813 4.813 0 0 0 2.042-3.09 4.867 4.867 0 0 0 .015-1.84zm1.792.15a6.671 6.671 0 0 1-.08 2.03 6.569 6.569 0 0 1-2.041 3.63l1.679 2.23a9.59 9.59 0 0 1 3.9-.83c.175 0 .347 0 .519.01l.867-6.41zm9.734.45a.878.878 0 0 1-.986.75l-2.163-.3-.869 6.43a9.581 9.581 0 0 1 4.561 2.57l1.036 1.05 1.8-13.28a3.207 3.207 0 0 0-3.372 2.78zm6.5-2.37l-1.384-.19-1.945 14.35 1.387.19zm.675 19.76a.879.879 0 0 1-1.238 0l-1.543-1.56-7.277 7.33 4.261 4.3 10.156-10.23a3.188 3.188 0 0 0-4.35.16zm5.606 1.08L69.725 50.66l.989 1 10.163-10.24zM30.837 12.95a.963.963 0 0 1-.166.02.884.884 0 0 1-.86-.72 8.269 8.269 0 0 0-.248-.98.877.877 0 1 1 1.668-.54 10.063 10.063 0 0 1 .3 1.19.878.878 0 0 1-.685 1.03zm-2.014-4.01a.868.868 0 0 1-.686-.33 8.567 8.567 0 0 0-6.629-3.26.885.885 0 0 1 0-1.77 10.351 10.351 0 0 1 8 3.93.887.887 0 0 1-.137 1.24.865.865 0 0 1-.539.19zm-3.515 26.19a.876.876 0 0 1-.876.88H20.5a.88.88 0 0 1 0-1.76h3.938a.876.876 0 0 1 .879.88z"/></svg>