<svg xmlns="http://www.w3.org/2000/svg" width="85.97" height="108" viewBox="0 0 85.97 108"><defs><style>.cls-1{fill:#e5e1d7;fill-rule:evenodd}</style></defs><path class="cls-1" d="M85.84 27.18a.935.935 0 0 1-.82.49 116.082 116.082 0 0 1-20.74-1.48c-1.6 1.29-4.39 1.86-7.67 1.65l-.78 2.92a.965.965 0 0 1-1.18.69l-7.74-2.09a.965.965 0 0 1-.68-1.19l.78-2.93c-2.95-1.47-5.09-3.37-5.83-5.3a116.1 116.1 0 0 1-18.7-9.17 1 1 0 0 1-.47-.84.982.982 0 0 1 .48-.84 28.492 28.492 0 0 1 20.4-3.47c.16.03.32.07.48.11A14.637 14.637 0 0 1 58.72.5a14.789 14.789 0 0 1 10.71 12.28 4.186 4.186 0 0 1 .47.14 28.749 28.749 0 0 1 15.95 13.3.993.993 0 0 1-.01.96zm-31.62 2.14l.45-1.69a24.583 24.583 0 0 1-2.99-.63 27.368 27.368 0 0 1-2.9-.96l-.45 1.69zm-2.04-4.2a18.43 18.43 0 0 0 8.81.49c-2.82-.55-5.63-1.19-8.42-1.94s-5.54-1.62-8.26-2.57a18.523 18.523 0 0 0 7.87 4.02zm.89-3.34a114.381 114.381 0 0 0 26.7 3.92L28 11.71a115.23 115.23 0 0 0 25.07 10.07zm5.15-19.4a12.7 12.7 0 0 0-13 4.13 8.1 8.1 0 0 1 .86.58 27.2 27.2 0 0 0 20.33 5.5 7.131 7.131 0 0 1 1.03-.07 12.833 12.833 0 0 0-9.22-10.14zm11.07 12.38a5.751 5.751 0 0 0-2.64-.24 29.118 29.118 0 0 1-21.74-5.88 5.791 5.791 0 0 0-2.41-1.12 26.477 26.477 0 0 0-16.1 1.74l55.98 15.13a26.829 26.829 0 0 0-13.09-9.63zm-4.94-3.45a1.133 1.133 0 0 1-.45-.01.967.967 0 0 1-.69-.74 6.189 6.189 0 0 0-2.34-3.48.971.971 0 0 1-.17-1.36.94.94 0 0 1 1.34-.18 8.006 8.006 0 0 1 3.05 4.61.976.976 0 0 1-.74 1.16zm-16.3 19.98a.979.979 0 0 1 .13 1.37L1.69 90.47a.954.954 0 0 1-.99.33 1.041 1.041 0 0 1-.36-.19.978.978 0 0 1-.13-1.37l46.48-57.81a.967.967 0 0 1 1.36-.14zM28.99 79.26a8.5 8.5 0 0 0 1.97-1.82 9.6 9.6 0 0 0 2-4.48c.03-.19.07-.37.1-.54.18-1.06.34-1.99.41-2.84v-.04a6.407 6.407 0 0 0-2.13-5.46.98.98 0 0 1-.12-1.23.956.956 0 0 1 .46-.36c1.02-.43 1.98-.87 2.86-1.29a4.516 4.516 0 0 1 1.06-.34l-.42-1.46a.965.965 0 1 1 1.86-.51l.62 2.17a3.991 3.991 0 0 1 .59.28l-.22-.78a1.02 1.02 0 0 1 .59-1.25.962.962 0 0 1 1.24.65l.72 2.52a.975.975 0 0 1-.5 1.14.749.749 0 0 0 .05.16c1.18 4.2 8.16 7.67 10.27 8.63a3.629 3.629 0 0 1 1.93 2.15 3.744 3.744 0 0 1-.25 2.93c-.07.12-.74 1.43-1.06 2.01a17.475 17.475 0 0 1-3.22 4.43 3.012 3.012 0 0 0-.79 1.11H47a12.943 12.943 0 0 1-4.07 5.15.943.943 0 0 1-.78.13 1.027 1.027 0 0 1-.55-.4.988.988 0 0 1 .27-1.35 11.045 11.045 0 0 0 2.96-3.49 2.021 2.021 0 0 1-.34-.06 2.729 2.729 0 0 1-.66-.28c-.35-.19-.69-.39-1.01-.59a10.01 10.01 0 0 1-4.28 2.75.872.872 0 0 1-.53.01.957.957 0 0 1-.66-.65.977.977 0 0 1 .63-1.22 8.166 8.166 0 0 0 3.19-1.94 34.942 34.942 0 0 1-4.51-3.59A20.618 20.618 0 0 1 33.49 84a.937.937 0 0 1-.95.28 1.017 1.017 0 0 1-.4-.23.975.975 0 0 1-.05-1.37 16.962 16.962 0 0 0 3.11-4.67c-.53-.59-.97-1.12-1.31-1.57a11.085 11.085 0 0 1-3.97 4.52.983.983 0 0 1-.71.09.952.952 0 0 1-.59-.47.967.967 0 0 1 .37-1.32zm13.27-9.51a1.555 1.555 0 0 0-.08.23 1.87 1.87 0 0 0 1.31 2.29 1.825 1.825 0 0 0 1.71-.42 25.391 25.391 0 0 1-2.94-2.1zM47.79 81a18.924 18.924 0 0 0 1.05-1.61 7.343 7.343 0 0 0-1.04-.95c-1.74-1.32-3.18-1.37-3.34-1.15a1.258 1.258 0 0 0 .22.91 6.549 6.549 0 0 0 1.81 2.01 8.217 8.217 0 0 0 1.3.79zm-13-6.65a3.214 3.214 0 0 0 .57.22c1.13.3 2.07-.09 2.22-.64.06-.58-1.23-2.45-2.32-3.1-.08.62-.2 1.26-.31 1.92-.08.47-.17.96-.25 1.46.03.04.06.09.09.14zm.63-5.56a6.63 6.63 0 0 1 2.84 2.28c.57.76 1.48 2.2 1.17 3.36a3.1 3.1 0 0 1-2.88 2.17 32.312 32.312 0 0 0 8.22 6.44.683.683 0 0 0 .22.09 1.657 1.657 0 0 0 1.5-.61 10.281 10.281 0 0 1-1.15-.75 8.444 8.444 0 0 1-2.36-2.66 2.675 2.675 0 0 1-.06-2.98c1.05-1.42 3.58-1.11 6.03.74a10.923 10.923 0 0 1 .88.76c.11-.19.49-.93.56-1.06a1.749 1.749 0 0 0 .12-1.38 1.651 1.651 0 0 0-.9-1q-1.47-.675-2.7-1.35a3.753 3.753 0 0 1-3.92 1.31 3.814 3.814 0 0 1-2.66-4.67 3.554 3.554 0 0 1 .48-1.09 9.955 9.955 0 0 1-2.53-4.06 2.176 2.176 0 0 0-.51-.92 2.026 2.026 0 0 0-.97-.58 2.05 2.05 0 0 0-1.44.13c-.55.26-1.13.53-1.73.8a7.808 7.808 0 0 1 1.79 5.03zm17.29-36.24a.974.974 0 0 1 1.1.81l11.6 73.51a.958.958 0 0 1-.8 1.11.778.778 0 0 1-.4-.02.972.972 0 0 1-.7-.78l-11.6-73.51a.981.981 0 0 1 .8-1.12z"/></svg>