<svg id="Группа_1" data-name="Группа 1" xmlns="http://www.w3.org/2000/svg" width="428" height="240" viewBox="0 0 428 240"><defs><style>.cls-1{fill:#37bbc7}.cls-2,.cls-3{fill:#e8f0f1;fill-rule:evenodd}.cls-3{fill:#fff}</style></defs><path id="bg" class="cls-1" d="M0 0h428v240H0z"/><path id="stars" class="cls-2" d="M1031.84 1456.97a2.769 2.769 0 0 0-1.22.63 4.356 4.356 0 0 0-.53 1.73.12.12 0 0 1-.24 0 4.2 4.2 0 0 0-.53-1.73 2.769 2.769 0 0 0-1.22-.63.12.12 0 0 1-.09-.12.117.117 0 0 1 .09-.11 2.68 2.68 0 0 0 1.22-.64 4.093 4.093 0 0 0 .53-1.72.12.12 0 0 1 .24 0 4.244 4.244 0 0 0 .53 1.72 2.68 2.68 0 0 0 1.22.64.107.107 0 0 1 .09.11.111.111 0 0 1-.09.12m11.13 29.48a2.347 2.347 0 0 0-1.12.58 3.82 3.82 0 0 0-.48 1.57.109.109 0 0 1-.11.1.116.116 0 0 1-.11-.1 3.82 3.82 0 0 0-.48-1.57 2.358 2.358 0 0 0-1.11-.58.117.117 0 0 1-.09-.11.127.127 0 0 1 .09-.11 2.44 2.44 0 0 0 1.11-.57 3.93 3.93 0 0 0 .48-1.58.117.117 0 0 1 .11-.09.109.109 0 0 1 .11.09 3.93 3.93 0 0 0 .48 1.58 2.427 2.427 0 0 0 1.12.57.117.117 0 0 1 .08.11.108.108 0 0 1-.08.11zm12.2 17.65a4.182 4.182 0 0 0-1.91.99 6.6 6.6 0 0 0-.83 2.7.175.175 0 0 1-.18.16.178.178 0 0 1-.19-.16 6.6 6.6 0 0 0-.83-2.7 4.182 4.182 0 0 0-1.91-.99.186.186 0 0 1 0-.36 4.182 4.182 0 0 0 1.91-.99 6.652 6.652 0 0 0 .83-2.7.178.178 0 0 1 .19-.16.175.175 0 0 1 .18.16 6.652 6.652 0 0 0 .83 2.7 4.182 4.182 0 0 0 1.91.99.186.186 0 0 1 0 .36zm9.13-27.89a5.88 5.88 0 0 0-2.71 1.41c-.53.55-.93 2.24-1.18 3.83a.268.268 0 0 1-.53 0c-.25-1.59-.65-3.28-1.17-3.83a5.931 5.931 0 0 0-2.71-1.41.259.259 0 0 1-.2-.26.267.267 0 0 1 .2-.26 6.017 6.017 0 0 0 2.71-1.4c.52-.56.92-2.25 1.17-3.84a.262.262 0 0 1 .27-.22.259.259 0 0 1 .26.22c.25 1.59.65 3.28 1.18 3.84a5.965 5.965 0 0 0 2.71 1.4.267.267 0 0 1 .2.26.259.259 0 0 1-.2.26zm-19.15-44.84c.22.05.45.11.67.16a8.394 8.394 0 0 0 1.13 3.47 6.073 6.073 0 0 0 2.78 1.44.279.279 0 0 1 0 .54 5.98 5.98 0 0 0-2.78 1.44c-.54.57-.96 2.31-1.21 3.94a.27.27 0 0 1-.27.23.289.289 0 0 1-.28-.23c-.25-1.63-.66-3.37-1.2-3.94a6.08 6.08 0 0 0-2.78-1.44.279.279 0 0 1 0-.54 6.177 6.177 0 0 0 2.78-1.44 8.861 8.861 0 0 0 1.16-3.63zm-123.6-46.79a5.549 5.549 0 0 0-2.53 1.31 8.69 8.69 0 0 0-1.1 3.59.253.253 0 0 1-.5 0 8.66 8.66 0 0 0-1.1-3.59 5.549 5.549 0 0 0-2.53-1.31.243.243 0 0 1-.188-.24.235.235 0 0 1 .188-.24 5.466 5.466 0 0 0 2.53-1.32 8.688 8.688 0 0 0 1.1-3.58.253.253 0 0 1 .5 0 8.688 8.688 0 0 0 1.1 3.58 5.466 5.466 0 0 0 2.53 1.32.235.235 0 0 1 .189.24.242.242 0 0 1-.193.24zm-7.563-46.03a2.573 2.573 0 0 0-1.22.63 4.17 4.17 0 0 0-.53 1.73.122.122 0 0 1-.24 0 4.155 4.155 0 0 0-.53-1.73 2.573 2.573 0 0 0-1.22-.63.135.135 0 0 1-.091-.12.117.117 0 0 1 .091-.12 2.665 2.665 0 0 0 1.22-.63 4.155 4.155 0 0 0 .53-1.73.122.122 0 0 1 .24 0 4.17 4.17 0 0 0 .53 1.73 2.665 2.665 0 0 0 1.22.63.117.117 0 0 1 .091.12.135.135 0 0 1-.091.12m50.126 119.47a2.491 2.491 0 0 0-1.113.58 3.791 3.791 0 0 0-.483 1.57.111.111 0 0 1-.22 0 3.791 3.791 0 0 0-.483-1.57 2.493 2.493 0 0 0-1.112-.58.1.1 0 0 1-.083-.11.1.1 0 0 1 .083-.1 2.493 2.493 0 0 0 1.112-.58 3.794 3.794 0 0 0 .483-1.58.112.112 0 0 1 .22 0 3.794 3.794 0 0 0 .483 1.58 2.491 2.491 0 0 0 1.113.58.1.1 0 0 1 .083.1.1.1 0 0 1-.087.11zm-19.118 34.3a9.774 9.774 0 0 0-4.534 2.35c-.877.93-1.557 3.76-1.967 6.42a.453.453 0 0 1-.894 0c-.411-2.66-1.09-5.49-1.968-6.42a9.77 9.77 0 0 0-4.533-2.35.455.455 0 0 1-.338-.44.447.447 0 0 1 .338-.44 9.863 9.863 0 0 0 4.533-2.35c.877-.93 1.557-3.76 1.968-6.42a.453.453 0 0 1 .894 0c.41 2.66 1.09 5.49 1.967 6.42a9.867 9.867 0 0 0 4.534 2.35.448.448 0 0 1 .338.44.456.456 0 0 1-.342.44zm62.8 14.83a4.131 4.131 0 0 0-1.91.99 6.448 6.448 0 0 0-.83 2.7.186.186 0 0 1-.19.16.183.183 0 0 1-.18-.16 6.6 6.6 0 0 0-.83-2.7 4.182 4.182 0 0 0-1.91-.99.192.192 0 0 1-.14-.18.2.2 0 0 1 .14-.19 4.089 4.089 0 0 0 1.91-.99 6.6 6.6 0 0 0 .83-2.7.183.183 0 0 1 .18-.16.186.186 0 0 1 .19.16 6.448 6.448 0 0 0 .83 2.7 4.04 4.04 0 0 0 1.91.99.2.2 0 0 1 .14.19.192.192 0 0 1-.145.18zm-22.353-43.63a5.884 5.884 0 0 0-2.707 1.41c-.524.55-.929 2.24-1.174 3.83a.27.27 0 0 1-.534 0c-.246-1.59-.651-3.28-1.175-3.83a5.884 5.884 0 0 0-2.707-1.41.261.261 0 0 1-.2-.26.269.269 0 0 1 .2-.26 5.963 5.963 0 0 0 2.707-1.4c.524-.56.929-2.25 1.175-3.84a.262.262 0 0 1 .266-.22.256.256 0 0 1 .268.22c.245 1.59.65 3.28 1.174 3.84a5.969 5.969 0 0 0 2.707 1.4.268.268 0 0 1 .2.26.26.26 0 0 1-.205.26zm-42.412-134.84c.226.05.451.11.675.16a8.4 8.4 0 0 0 1.129 3.47 6.124 6.124 0 0 0 2.78 1.44.28.28 0 0 1 0 .54 6.029 6.029 0 0 0-2.78 1.44c-.538.57-.954 2.31-1.206 3.94a.278.278 0 0 1-.548 0c-.252-1.63-.668-3.37-1.206-3.94a6.034 6.034 0 0 0-2.78-1.44.279.279 0 0 1 0-.54 6.129 6.129 0 0 0 2.78-1.44 8.788 8.788 0 0 0 1.151-3.63zm-24.076 121.95a5.546 5.546 0 0 0-2.529 1.31 8.657 8.657 0 0 0-1.1 3.58.251.251 0 0 1-.5 0 8.674 8.674 0 0 0-1.1-3.58 5.555 5.555 0 0 0-2.53-1.31.249.249 0 0 1-.188-.24.253.253 0 0 1 .188-.25 5.555 5.555 0 0 0 2.53-1.31 8.674 8.674 0 0 0 1.1-3.58.251.251 0 0 1 .5 0 8.657 8.657 0 0 0 1.1 3.58 5.546 5.546 0 0 0 2.529 1.31.254.254 0 0 1 .189.25.251.251 0 0 1-.194.24zm238.8-133.71a2.769 2.769 0 0 0-1.22.63 4.147 4.147 0 0 0-.53 1.73.122.122 0 0 1-.24 0 4.3 4.3 0 0 0-.53-1.73 2.769 2.769 0 0 0-1.22-.63.111.111 0 0 1-.09-.12.126.126 0 0 1 .09-.12 2.578 2.578 0 0 0 1.22-.63 4.246 4.246 0 0 0 .53-1.73.122.122 0 0 1 .24 0 4.1 4.1 0 0 0 .53 1.73 2.578 2.578 0 0 0 1.22.63.14.14 0 0 1 .09.12.12.12 0 0 1-.09.12m11.12 29.48a2.39 2.39 0 0 0-1.11.57 3.777 3.777 0 0 0-.48 1.58.117.117 0 0 1-.11.09.109.109 0 0 1-.11-.09 3.759 3.759 0 0 0-.49-1.58 2.341 2.341 0 0 0-1.11-.57.117.117 0 0 1-.08-.11.108.108 0 0 1 .08-.11 2.266 2.266 0 0 0 1.11-.58 3.655 3.655 0 0 0 .49-1.57.109.109 0 0 1 .11-.1.116.116 0 0 1 .11.1 3.674 3.674 0 0 0 .48 1.57 2.311 2.311 0 0 0 1.11.58.117.117 0 0 1 .09.11.127.127 0 0 1-.094.11zm43.68 49.12a4.182 4.182 0 0 0-1.91.99 6.519 6.519 0 0 0-.82 2.7.192.192 0 0 1-.19.16.178.178 0 0 1-.19-.16 6.5 6.5 0 0 0-.83-2.7 4.144 4.144 0 0 0-1.9-.99.183.183 0 0 1 0-.36 4.144 4.144 0 0 0 1.9-.99 6.448 6.448 0 0 0 .83-2.7.178.178 0 0 1 .19-.16.192.192 0 0 1 .19.16 6.467 6.467 0 0 0 .82 2.7 4.182 4.182 0 0 0 1.91.99.186.186 0 0 1-.004.36zm-22.35-43.62a5.965 5.965 0 0 0-2.71 1.4 9.3 9.3 0 0 0-1.17 3.84.262.262 0 0 1-.27.22.259.259 0 0 1-.26-.22 9.432 9.432 0 0 0-1.18-3.84 5.965 5.965 0 0 0-2.71-1.4.267.267 0 0 1-.2-.26.259.259 0 0 1 .2-.26 5.88 5.88 0 0 0 2.71-1.41c.52-.55.93-2.24 1.18-3.83a.268.268 0 0 1 .53 0c.24 1.59.65 3.28 1.17 3.83a5.88 5.88 0 0 0 2.71 1.41.259.259 0 0 1 .2.26.267.267 0 0 1-.204.26zm-66.49-12.89a5.49 5.49 0 0 0-2.53 1.31 8.688 8.688 0 0 0-1.09 3.58.257.257 0 0 1-.25.21.249.249 0 0 1-.25-.21 8.668 8.668 0 0 0-1.1-3.58 5.441 5.441 0 0 0-2.53-1.31.258.258 0 0 1-.19-.25.246.246 0 0 1 .19-.24 5.534 5.534 0 0 0 2.53-1.31 8.671 8.671 0 0 0 1.1-3.59.249.249 0 0 1 .25-.21.257.257 0 0 1 .25.21 8.692 8.692 0 0 0 1.09 3.59 5.586 5.586 0 0 0 2.53 1.31.236.236 0 0 1 .19.24.247.247 0 0 1-.194.25zm-14.96-48.09a2.769 2.769 0 0 0-1.22.63 4.147 4.147 0 0 0-.53 1.73.122.122 0 0 1-.24 0 4.3 4.3 0 0 0-.53-1.73 2.769 2.769 0 0 0-1.22-.63.111.111 0 0 1-.09-.12.126.126 0 0 1 .09-.12 2.578 2.578 0 0 0 1.22-.63 4.246 4.246 0 0 0 .53-1.73.122.122 0 0 1 .24 0 4.1 4.1 0 0 0 .53 1.73 2.578 2.578 0 0 0 1.22.63.14.14 0 0 1 .09.12.12.12 0 0 1-.09.12m11.12 29.48a2.39 2.39 0 0 0-1.11.57 3.777 3.777 0 0 0-.48 1.58.117.117 0 0 1-.11.09.109.109 0 0 1-.11-.09 3.759 3.759 0 0 0-.49-1.58 2.341 2.341 0 0 0-1.11-.57.117.117 0 0 1-.08-.11.108.108 0 0 1 .08-.11 2.266 2.266 0 0 0 1.11-.58 3.655 3.655 0 0 0 .49-1.57.109.109 0 0 1 .11-.1.116.116 0 0 1 .11.1 3.674 3.674 0 0 0 .48 1.57 2.311 2.311 0 0 0 1.11.58.117.117 0 0 1 .09.11.127.127 0 0 1-.094.11zm43.68 49.12a4.182 4.182 0 0 0-1.91.99 6.519 6.519 0 0 0-.82 2.7.192.192 0 0 1-.19.16.178.178 0 0 1-.19-.16 6.5 6.5 0 0 0-.83-2.7 4.144 4.144 0 0 0-1.9-.99.183.183 0 0 1 0-.36 4.144 4.144 0 0 0 1.9-.99 6.448 6.448 0 0 0 .83-2.7.178.178 0 0 1 .19-.16.192.192 0 0 1 .19.16 6.467 6.467 0 0 0 .82 2.7 4.182 4.182 0 0 0 1.91.99.186.186 0 0 1-.004.36zm-22.35-43.62a5.965 5.965 0 0 0-2.71 1.4 9.3 9.3 0 0 0-1.17 3.84.262.262 0 0 1-.27.22.259.259 0 0 1-.26-.22 9.432 9.432 0 0 0-1.18-3.84 5.965 5.965 0 0 0-2.71-1.4.267.267 0 0 1-.2-.26.259.259 0 0 1 .2-.26 5.88 5.88 0 0 0 2.71-1.41c.52-.55.93-2.24 1.18-3.83a.268.268 0 0 1 .53 0c.24 1.59.65 3.28 1.17 3.83a5.88 5.88 0 0 0 2.71 1.41.259.259 0 0 1 .2.26.267.267 0 0 1-.204.26zm-66.49-12.89a5.49 5.49 0 0 0-2.53 1.31 8.688 8.688 0 0 0-1.09 3.58.257.257 0 0 1-.25.21.249.249 0 0 1-.25-.21 8.668 8.668 0 0 0-1.1-3.58 5.441 5.441 0 0 0-2.53-1.31.258.258 0 0 1-.19-.25.246.246 0 0 1 .19-.24 5.534 5.534 0 0 0 2.53-1.31 8.671 8.671 0 0 0 1.1-3.59.249.249 0 0 1 .25-.21.257.257 0 0 1 .25.21 8.692 8.692 0 0 0 1.09 3.59 5.586 5.586 0 0 0 2.53 1.31.236.236 0 0 1 .19.24.247.247 0 0 1-.194.25zm195.18-11.52a9.724 9.724 0 0 0-4.53 2.35c-.88.93-1.56 3.76-1.97 6.42a.452.452 0 0 1-.45.38.46.46 0 0 1-.45-.38c-.41-2.66-1.09-5.49-1.96-6.42a9.811 9.811 0 0 0-4.54-2.35.45.45 0 0 1-.33-.44.442.442 0 0 1 .33-.44 9.9 9.9 0 0 0 4.54-2.35c.87-.93 1.55-3.76 1.96-6.42a.46.46 0 0 1 .45-.38.452.452 0 0 1 .45.38c.41 2.66 1.09 5.49 1.97 6.42a9.816 9.816 0 0 0 4.53 2.35.45.45 0 0 1 .34.44.459.459 0 0 1-.344.44zm15.19 138.17a2.68 2.68 0 0 1 1.22.64 4.093 4.093 0 0 1 .53 1.72.12.12 0 0 0 .24 0 4.093 4.093 0 0 1 .53-1.72 2.642 2.642 0 0 1 1.21-.64.111.111 0 0 0 .09-.12.107.107 0 0 0-.09-.11 2.642 2.642 0 0 1-1.21-.64 4.093 4.093 0 0 1-.53-1.72.12.12 0 0 0-.24 0 4.093 4.093 0 0 1-.53 1.72 2.68 2.68 0 0 1-1.22.64.117.117 0 0 0-.09.11.12.12 0 0 0 .09.12m-26.83-49.2a2.44 2.44 0 0 1 1.11.57 3.93 3.93 0 0 1 .48 1.58.1.1 0 0 0 .11.09.107.107 0 0 0 .11-.09 3.777 3.777 0 0 1 .48-1.58 2.341 2.341 0 0 1 1.11-.57.116.116 0 0 0 0-.22 2.341 2.341 0 0 1-1.11-.57 3.777 3.777 0 0 1-.48-1.58.117.117 0 0 0-.11-.09.109.109 0 0 0-.11.09 3.93 3.93 0 0 1-.48 1.58 2.44 2.44 0 0 1-1.11.57.112.112 0 0 0-.004.22zm34.8 2.82a9.91 9.91 0 0 1 4.53 2.35c.87.93 1.55 3.76 1.96 6.42a.451.451 0 0 0 .89 0c.41-2.66 1.09-5.49 1.96-6.42a9.91 9.91 0 0 1 4.53-2.35.442.442 0 0 0 .33-.44.45.45 0 0 0-.33-.44 9.806 9.806 0 0 1-4.53-2.34c-.87-.94-1.55-3.77-1.96-6.43a.451.451 0 0 0-.89 0c-.41 2.66-1.09 5.49-1.96 6.43a9.806 9.806 0 0 1-4.53 2.34.45.45 0 0 0-.33.44.442.442 0 0 0 .326.44zm-41.73 26.37a4.144 4.144 0 0 1 1.9.99 6.448 6.448 0 0 1 .83 2.7.178.178 0 0 0 .19.16.192.192 0 0 0 .19-.16 6.467 6.467 0 0 1 .82-2.7 4.144 4.144 0 0 1 1.9-.99.186.186 0 0 0 0-.36 4.144 4.144 0 0 1-1.9-.99 6.519 6.519 0 0 1-.82-2.7.192.192 0 0 0-.19-.16.178.178 0 0 0-.19.16 6.5 6.5 0 0 1-.83 2.7 4.144 4.144 0 0 1-1.9.99.186.186 0 0 0-.004.36zm-40.58 23.52a5.978 5.978 0 0 1 2.7 1.4 9.3 9.3 0 0 1 1.17 3.84.276.276 0 0 0 .54 0c.24-1.59.64-3.28 1.17-3.84a5.875 5.875 0 0 1 2.7-1.4.267.267 0 0 0 .2-.26.259.259 0 0 0-.2-.26 5.793 5.793 0 0 1-2.7-1.41c-.53-.55-.93-2.24-1.17-3.83a.273.273 0 0 0-.54 0c-.24 1.59-.65 3.28-1.17 3.83a5.893 5.893 0 0 1-2.7 1.41.259.259 0 0 0-.2.26.267.267 0 0 0 .196.26zm40.09-96.25c-.23.05-.45.11-.68.16a8.414 8.414 0 0 1-1.12 3.47 6.138 6.138 0 0 1-2.77 1.44.279.279 0 0 0 0 .54 5.95 5.95 0 0 1 2.77 1.44c.53.57.95 2.31 1.2 3.93a.278.278 0 0 0 .55 0c.25-1.62.66-3.36 1.2-3.93a5.95 5.95 0 0 1 2.77-1.44.279.279 0 0 0 0-.54 6.138 6.138 0 0 1-2.77-1.44 8.839 8.839 0 0 1-1.154-3.63zm66.24 4.67a5.5 5.5 0 0 1 2.52 1.31 8.671 8.671 0 0 1 1.1 3.59.249.249 0 0 0 .25.21.257.257 0 0 0 .25-.21 8.543 8.543 0 0 1 1.09-3.59 5.547 5.547 0 0 1 2.52-1.31.236.236 0 0 0 .19-.24.247.247 0 0 0-.19-.25 5.453 5.453 0 0 1-2.52-1.31 8.688 8.688 0 0 1-1.09-3.58.257.257 0 0 0-.25-.21.249.249 0 0 0-.25.21 8.668 8.668 0 0 1-1.1 3.58 5.4 5.4 0 0 1-2.52 1.31.258.258 0 0 0-.19.25.246.246 0 0 0 .186.24zm-348.049-21.03a2.3 2.3 0 0 1 1.11.58 3.756 3.756 0 0 1 .482 1.57.11.11 0 0 0 .219 0 3.741 3.741 0 0 1 .482-1.57 2.3 2.3 0 0 1 1.11-.58.111.111 0 0 0 .082-.11.12.12 0 0 0-.082-.11 2.375 2.375 0 0 1-1.11-.57 3.864 3.864 0 0 1-.482-1.58.112.112 0 0 0-.219 0 3.864 3.864 0 0 1-.482 1.58 2.375 2.375 0 0 1-1.11.57.121.121 0 0 0-.083.11.112.112 0 0 0 .079.11zm28.808-11.18a9.917 9.917 0 0 1 4.521 2.35c.88.93 1.55 3.76 1.96 6.42a.455.455 0 0 0 .9 0c.41-2.66 1.08-5.49 1.96-6.42a9.924 9.924 0 0 1 4.52-2.35.448.448 0 0 0 0-.87 9.924 9.924 0 0 1-4.52-2.35c-.88-.93-1.55-3.77-1.96-6.42a.455.455 0 0 0-.9 0c-.41 2.65-1.08 5.49-1.96 6.42a9.917 9.917 0 0 1-4.521 2.35.449.449 0 0 0-.004.87zm-36.233-32.36c-.225.05-.449.11-.673.17a8.4 8.4 0 0 1-1.126 3.46 6.013 6.013 0 0 1-2.773 1.44.28.28 0 0 0 0 .54 6.013 6.013 0 0 1 2.773 1.44c.536.57.952 2.31 1.2 3.94a.278.278 0 0 0 .547 0c.251-1.63.666-3.37 1.2-3.94a6.008 6.008 0 0 1 2.773-1.44.28.28 0 0 0 0-.54 6 6 0 0 1-2.773-1.44 8.753 8.753 0 0 1-1.148-3.63zm68.238 4.68a5.441 5.441 0 0 1 2.53 1.31 8.688 8.688 0 0 1 1.09 3.58.257.257 0 0 0 .25.21.249.249 0 0 0 .25-.21 8.668 8.668 0 0 1 1.1-3.58 5.355 5.355 0 0 1 2.52-1.31.258.258 0 0 0 .19-.25.246.246 0 0 0-.19-.24 5.446 5.446 0 0 1-2.52-1.31 8.671 8.671 0 0 1-1.1-3.59.249.249 0 0 0-.25-.21.257.257 0 0 0-.25.21 8.692 8.692 0 0 1-1.09 3.59 5.534 5.534 0 0 1-2.53 1.31.238.238 0 0 0-.18.24.25.25 0 0 0 .182.25zm242.13 205.14a2.5 2.5 0 0 1 1.21.63 4.1 4.1 0 0 1 .53 1.73.122.122 0 0 0 .24 0 4.246 4.246 0 0 1 .53-1.73 2.578 2.578 0 0 1 1.22-.63.125.125 0 0 0 0-.24 2.578 2.578 0 0 1-1.22-.63 4.246 4.246 0 0 1-.53-1.73.122.122 0 0 0-.24 0 4.1 4.1 0 0 1-.53 1.73 2.5 2.5 0 0 1-1.21.63.125.125 0 0 0 0 .24m-12.1-168.53a2.5 2.5 0 0 1 1.11.58 3.876 3.876 0 0 1 .48 1.58.117.117 0 0 0 .11.09.109.109 0 0 0 .11-.09 3.876 3.876 0 0 1 .48-1.58 2.5 2.5 0 0 1 1.11-.58.106.106 0 0 0 .09-.1.109.109 0 0 0-.09-.11 2.5 2.5 0 0 1-1.11-.58 3.874 3.874 0 0 1-.48-1.57.109.109 0 0 0-.11-.1.116.116 0 0 0-.11.1 3.874 3.874 0 0 1-.48 1.57 2.5 2.5 0 0 1-1.11.58.1.1 0 0 0-.08.11.1.1 0 0 0 .082.1zm29.56 2.83a9.736 9.736 0 0 1 4.52 2.35c.88.93 1.56 3.76 1.97 6.42a.442.442 0 0 0 .44.38.452.452 0 0 0 .45-.38c.41-2.66 1.09-5.49 1.96-6.42a9.736 9.736 0 0 1 4.52-2.35.459.459 0 0 0 .34-.44.45.45 0 0 0-.34-.44 9.829 9.829 0 0 1-4.52-2.35c-.87-.93-1.55-3.76-1.96-6.42a.452.452 0 0 0-.45-.38.442.442 0 0 0-.44.38c-.41 2.66-1.09 5.49-1.97 6.42a9.829 9.829 0 0 1-4.52 2.35.45.45 0 0 0-.34.44.459.459 0 0 0 .342.44zm-70.82 174.69a5.893 5.893 0 0 1 2.7 1.41c.52.55.93 2.24 1.17 3.83a.268.268 0 0 0 .53 0c.25-1.59.65-3.28 1.18-3.83a5.793 5.793 0 0 1 2.7-1.41.259.259 0 0 0 .2-.26.267.267 0 0 0-.2-.26 5.875 5.875 0 0 1-2.7-1.4c-.53-.56-.93-2.25-1.18-3.84a.277.277 0 0 0-.26-.23.27.27 0 0 0-.27.23 9.3 9.3 0 0 1-1.17 3.84 5.978 5.978 0 0 1-2.7 1.4.267.267 0 0 0-.2.26.259.259 0 0 0 .202.26zm40.09-38.79c-.23.05-.45.11-.68.16a8.469 8.469 0 0 1-1.12 3.47 6.124 6.124 0 0 1-2.78 1.44.27.27 0 0 0-.2.27.279.279 0 0 0 .2.27 5.938 5.938 0 0 1 2.78 1.44c.53.57.95 2.3 1.2 3.93a.278.278 0 0 0 .55 0c.25-1.63.66-3.36 1.2-3.93a5.9 5.9 0 0 1 2.77-1.44.277.277 0 0 0 .21-.27.269.269 0 0 0-.21-.27 6.086 6.086 0 0 1-2.77-1.44 8.839 8.839 0 0 1-1.148-3.63zm52.5 20.41a5.446 5.446 0 0 1 2.52 1.31 8.668 8.668 0 0 1 1.1 3.58.249.249 0 0 0 .25.22.256.256 0 0 0 .25-.22 8.688 8.688 0 0 1 1.09-3.58 5.534 5.534 0 0 1 2.53-1.31.246.246 0 0 0 .18-.24.25.25 0 0 0-.18-.25 5.534 5.534 0 0 1-2.53-1.31 8.688 8.688 0 0 1-1.09-3.58.256.256 0 0 0-.25-.22.249.249 0 0 0-.25.22 8.668 8.668 0 0 1-1.1 3.58 5.446 5.446 0 0 1-2.52 1.31.258.258 0 0 0-.19.25.255.255 0 0 0 .192.24zm-174.68 2.77a2.578 2.578 0 0 1-1.22-.63 4.1 4.1 0 0 1-.53-1.73.122.122 0 0 0-.24 0 4.1 4.1 0 0 1-.53 1.73 2.542 2.542 0 0 1-1.21.63.111.111 0 0 0-.09.12.126.126 0 0 0 .09.12 2.542 2.542 0 0 1 1.21.63 4.1 4.1 0 0 1 .53 1.73.122.122 0 0 0 .24 0 4.1 4.1 0 0 1 .53-1.73 2.578 2.578 0 0 1 1.22-.63.14.14 0 0 0 .09-.12.12.12 0 0 0-.09-.12m11.09-29.48a2.44 2.44 0 0 1-1.11-.57 3.93 3.93 0 0 1-.48-1.58.109.109 0 0 0-.11-.09.117.117 0 0 0-.11.09 3.777 3.777 0 0 1-.48 1.58 2.341 2.341 0 0 1-1.11.57.117.117 0 0 0-.08.11.108.108 0 0 0 .08.11 2.351 2.351 0 0 1 1.11.58 3.723 3.723 0 0 1 .48 1.57.116.116 0 0 0 .11.1.109.109 0 0 0 .11-.1 3.874 3.874 0 0 1 .48-1.57 2.358 2.358 0 0 1 1.11-.58.117.117 0 0 0 .09-.11.127.127 0 0 0-.088-.11zm-29.56-2.82a9.736 9.736 0 0 1-4.52-2.35c-.88-.93-1.55-3.76-1.96-6.42a.452.452 0 0 0-.45-.38.442.442 0 0 0-.44.38c-.41 2.66-1.09 5.49-1.97 6.42a9.736 9.736 0 0 1-4.52 2.35.455.455 0 0 0 0 .88 9.736 9.736 0 0 1 4.52 2.35c.88.93 1.56 3.76 1.97 6.42a.442.442 0 0 0 .44.38.452.452 0 0 0 .45-.38c.41-2.66 1.08-5.49 1.96-6.42a9.736 9.736 0 0 1 4.52-2.35.455.455 0 0 0 .002-.88zm46.98-26.37a4.144 4.144 0 0 1-1.9-.99 6.6 6.6 0 0 1-.83-2.7.183.183 0 0 0-.18-.16.186.186 0 0 0-.19.16 6.448 6.448 0 0 1-.83 2.7 4.144 4.144 0 0 1-1.9.99.192.192 0 0 0-.14.18.2.2 0 0 0 .14.19 4.052 4.052 0 0 1 1.9.99 6.448 6.448 0 0 1 .83 2.7.186.186 0 0 0 .19.16.183.183 0 0 0 .18-.16 6.6 6.6 0 0 1 .83-2.7 4.052 4.052 0 0 1 1.9-.99.184.184 0 0 0 .14-.19.181.181 0 0 0-.138-.18zm24.84 44.67a5.79 5.79 0 0 1-2.7-1.4c-.52-.55-.92-2.25-1.17-3.83a.259.259 0 0 0-.26-.23.262.262 0 0 0-.27.23c-.25 1.58-.65 3.28-1.17 3.83a5.79 5.79 0 0 1-2.7 1.4.279.279 0 0 0-.2.27.267.267 0 0 0 .2.26 5.883 5.883 0 0 1 2.7 1.4 9.45 9.45 0 0 1 1.17 3.83.262.262 0 0 0 .27.23.259.259 0 0 0 .26-.23 9.45 9.45 0 0 1 1.17-3.83 5.883 5.883 0 0 1 2.7-1.4.276.276 0 0 0 .21-.26.288.288 0 0 0-.208-.27zm-92.59 23.39a5.547 5.547 0 0 1-2.52-1.31 8.668 8.668 0 0 1-1.1-3.58.24.24 0 0 0-.24-.22.249.249 0 0 0-.25.22 8.668 8.668 0 0 1-1.1 3.58 5.547 5.547 0 0 1-2.52 1.31.255.255 0 0 0-.19.24.258.258 0 0 0 .19.25 5.453 5.453 0 0 1 2.52 1.31 8.668 8.668 0 0 1 1.1 3.58.258.258 0 0 0 .25.22.24.24 0 0 0 .24-.22 8.668 8.668 0 0 1 1.1-3.58 5.453 5.453 0 0 1 2.52-1.31.247.247 0 0 0 .19-.25.244.244 0 0 0-.188-.24z" transform="translate(-898 -1273)"/><path id="icon" class="cls-3" d="M1055 1393a5.588 5.588 0 0 1-4.87 5.55 1.8 1.8 0 0 1 .65 1.61 1.779 1.779 0 0 1-1.76 1.57 1.635 1.635 0 0 1-.22-.02 1.78 1.78 0 0 1-1.54-1.99 1.752 1.752 0 0 1 .82-1.29 5.6 5.6 0 0 1-.06-10.83 1.829 1.829 0 0 1-.76-1.26 1.774 1.774 0 1 1 2.94 1.12 5.588 5.588 0 0 1 4.8 5.54zm-5.55-2.02a2.025 2.025 0 1 0 2 2.02 2.019 2.019 0 0 0-2-2.02zm-1.21-9.67a1.593 1.593 0 0 1-.43.06 1.788 1.788 0 0 1-.43-3.52 1.783 1.783 0 0 1 .86 3.46zm-1.78-6.42a1.812 1.812 0 0 1-.64.12 1.781 1.781 0 1 1 .64-.12zm-2.55-6.15a1.734 1.734 0 0 1-.83.21 1.765 1.765 0 0 1-1.56-.95 1.8 1.8 0 0 1 .73-2.42 1.785 1.785 0 0 1 1.66 3.16zm-4.27-5.48a1.78 1.78 0 1 1 1.01-.32 1.728 1.728 0 0 1-1.01.32zm-2.99 18.35a2.005 2.005 0 0 1-.53.08 1.773 1.773 0 0 1-1.69-1.25 1.794 1.794 0 0 1 1.16-2.24 1.77 1.77 0 0 1 2.22 1.17 1.8 1.8 0 0 1-1.16 2.24zm-1.11-23.58a1.749 1.749 0 0 1-1.33-.59 1.8 1.8 0 0 1 .15-2.52 1.762 1.762 0 0 1 2.5.14 1.8 1.8 0 0 1-.14 2.52 1.73 1.73 0 0 1-1.18.45zm-.28 14.9a1.792 1.792 0 0 1-.81 2.39 1.68 1.68 0 0 1-.78.18 1.749 1.749 0 0 1-1.59-.99 1.789 1.789 0 0 1 .81-2.39 1.761 1.761 0 0 1 2.37.81zm-4.42-19.59a1.762 1.762 0 0 1-1.17-.44 1.805 1.805 0 0 1-.16-2.52 1.775 1.775 0 0 1 2.51-.16 1.8 1.8 0 0 1 .15 2.52 1.759 1.759 0 0 1-1.33.6zm.92 13.62a1.793 1.793 0 0 1-.44 2.49 1.728 1.728 0 0 1-1.01.32 1.751 1.751 0 0 1-1.45-.77 1.78 1.78 0 0 1 .44-2.48 1.758 1.758 0 0 1 2.46.44zm-.46 49.62a1.793 1.793 0 0 1 .44 2.49 1.772 1.772 0 0 1-2.47.44 1.79 1.79 0 0 1-.44-2.48 1.771 1.771 0 0 1 2.47-.45zm-4.51-22.6h-.04a1.752 1.752 0 1 1 .04 0zm-.66-29.37a1.764 1.764 0 0 1-1.29-.55 1.805 1.805 0 0 1 .06-2.53 1.772 1.772 0 0 1 2.51.07 1.793 1.793 0 0 1-.06 2.52 1.759 1.759 0 0 1-1.22.49zm-.5-15.36a1.737 1.737 0 0 1-1-.31 1.793 1.793 0 0 1-.46-2.48 1.752 1.752 0 0 1 2.46-.46 1.781 1.781 0 0 1-1 3.25zm-.27 29.31a1.789 1.789 0 0 1-.86 2.37 1.675 1.675 0 0 1-.75.17 1.782 1.782 0 1 1 1.61-2.54zm-4.14-18.41a1.745 1.745 0 0 1-1.08-.37 1.794 1.794 0 0 1-.32-2.51 1.76 1.76 0 0 1 2.49-.31 1.79 1.79 0 0 1 .31 2.5 1.771 1.771 0 0 1-1.4.69zm-1.25-14.33a1.725 1.725 0 0 1-.82-.21 1.78 1.78 0 0 1 1.64-3.16 1.788 1.788 0 0 1-.82 3.37zm-4.1 24.69a1.773 1.773 0 0 1-1.17-.45 1.794 1.794 0 0 1-.16-2.51 1.755 1.755 0 0 1 2.5-.16 1.787 1.787 0 0 1 .16 2.52 1.759 1.759 0 0 1-1.33.6zm-.17-14.02a1.709 1.709 0 0 1-.86-.23 1.782 1.782 0 0 1-.68-2.42 1.757 1.757 0 0 1 2.41-.7h-.01a1.789 1.789 0 0 1-.86 3.35zm-1.76-13.39a1.99 1.99 0 0 1-.63-.11 1.8 1.8 0 0 1-1.03-2.31 1.773 1.773 0 0 1 2.28-1.04 1.788 1.788 0 0 1-.62 3.46zm-1.9 22.64a1.774 1.774 0 1 1-.66-2.43 1.792 1.792 0 0 1 .66 2.43zm-2.34-12.03a1.872 1.872 0 0 1-.61-.11 1.8 1.8 0 0 1-1.05-2.3 1.772 1.772 0 1 1 1.66 2.41zm-2.08-12.58a1.509 1.509 0 0 1-.42-.05 1.785 1.785 0 0 1 .84-3.47 1.792 1.792 0 0 1 1.3 2.16 1.769 1.769 0 0 1-1.72 1.36zm-1.48 21.6a1.786 1.786 0 0 1-1.69 1.24 1.7 1.7 0 0 1-.54-.09 1.79 1.79 0 0 1-1.14-2.25 1.769 1.769 0 0 1 2.23-1.15 1.79 1.79 0 0 1 1.14 2.25zm-2.79-10.85a2.186 2.186 0 0 1-.36-.03 1.788 1.788 0 0 1-1.38-2.11 1.771 1.771 0 1 1 1.74 2.14zm-2.24-11.93a1.477 1.477 0 0 1-.21-.01 1.794 1.794 0 1 1 .21.01zm-4.319 11.1h-.091a1.818 1.818 0 1 1 .091 0zm-2.279-11.48a1.785 1.785 0 1 1 1.773-1.79 1.78 1.78 0 0 1-1.773 1.79zm-2.949 23.01h-.18a1.772 1.772 0 0 1-1.762-1.6 1.773 1.773 0 1 1 1.942 1.6zm-1.2-11.37a1.111 1.111 0 0 1-.181.01 1.781 1.781 0 1 1 .177-.01zm-2.236-11.24a1.591 1.591 0 0 1-.218.01 1.753 1.753 0 1 1 .214-.01zm-4.006 12.37a1.712 1.712 0 0 1-.444.06 1.788 1.788 0 1 1 .44-.06zm-2.286-11.21a1.56 1.56 0 0 1-.426.05 1.769 1.769 0 1 1 .422-.05zm-3.713 13.28a1.733 1.733 0 0 1-.7.14 1.771 1.771 0 0 1-1.631-1.08 1.775 1.775 0 1 1 2.327.94zm-2.4-11.36a1.752 1.752 0 0 1-.631.12 1.786 1.786 0 1 1 .63-.12zm-3.219 14.32a1.715 1.715 0 0 1-.938.28 1.788 1.788 0 0 1-.944-3.3 1.764 1.764 0 0 1 2.444.56 1.789 1.789 0 0 1-.565 2.46zm-2.611-11.66a1.781 1.781 0 0 1-2.395-.75 1.788 1.788 0 0 1 .74-2.41 1.769 1.769 0 0 1 2.394.75 1.792 1.792 0 0 1-.74 2.41zm-2.494 15.45a1.746 1.746 0 0 1-.647.36 6.516 6.516 0 0 1-8.418 9.58 1.788 1.788 0 0 1-1.692 2.32 1.816 1.816 0 0 1-.866-.23 1.788 1.788 0 0 1 .99-3.34 6.549 6.549 0 0 1 4.755-11 6.325 6.325 0 0 1 2.965.73 1.773 1.773 0 0 1 3.1-.94 1.8 1.8 0 0 1-.185 2.52zm-5.878 1.26a2.975 2.975 0 1 0 2.954 2.98 2.973 2.973 0 0 0-2.955-2.98zm1.892-13.05a1.785 1.785 0 1 1 1.007-.32 1.717 1.717 0 0 1-1.008.32zm-5.2 4.12a1.751 1.751 0 0 1-1.322-.6 1.791 1.791 0 0 1 .145-2.52 1.759 1.759 0 0 1 2.5.15 1.792 1.792 0 0 1-.149 2.52 1.766 1.766 0 0 1-1.178.45zm-4.671 4.71a1.76 1.76 0 0 1-1.173-.45 1.792 1.792 0 0 1-.153-2.52 1.765 1.765 0 0 1 2.5-.15 1.792 1.792 0 0 1 .151 2.52 1.753 1.753 0 0 1-1.329.6zm.221 26.23a1.773 1.773 0 0 1-1.732 1.42 1.529 1.529 0 0 1-.365-.04 1.782 1.782 0 1 1 2.093-1.38zm-2.839-21.76a1.772 1.772 0 0 1-1.46.77 1.719 1.719 0 0 1-1.007-.32 1.787 1.787 0 0 1-.449-2.48 1.764 1.764 0 0 1 2.465-.45 1.788 1.788 0 0 1 .451 2.48zm-3.313 5.51a1.77 1.77 0 0 1-1.57.96 1.751 1.751 0 0 1-.823-.21 1.791 1.791 0 0 1-.744-2.41 1.769 1.769 0 0 1 2.395-.75 1.792 1.792 0 0 1 .738 2.41zm-2.626 5.87a1.778 1.778 0 0 1-1.657 1.15 1.737 1.737 0 0 1-.629-.12 1.78 1.78 0 1 1 2.282-1.03zm-1.9 6.15a1.781 1.781 0 0 1-1.721 1.36 2.034 2.034 0 0 1-.422-.05 1.8 1.8 0 0 1-1.3-2.17 1.775 1.775 0 1 1 3.436.86zm-1.148 6.33a1.783 1.783 0 0 1-1.759 1.58 1.592 1.592 0 0 1-.215-.02 1.783 1.783 0 1 1 1.967-1.56zm-2.156 4.65a1.785 1.785 0 1 1-1.773 1.79 1.781 1.781 0 0 1 1.766-1.79zm.18 6.66a1.787 1.787 0 0 1 .42 3.55 1.519 1.519 0 0 1-.213.01 1.787 1.787 0 0 1-.214-3.56zm.968 6.59a1.785 1.785 0 0 1 .841 3.47 2.026 2.026 0 0 1-.422.05 1.787 1.787 0 0 1-.426-3.52zm1.752 6.43a1.761 1.761 0 0 1 2.285 1.04 1.787 1.787 0 0 1-1.031 2.3 1.707 1.707 0 0 1-.625.11 1.784 1.784 0 0 1-.636-3.45zm2.515 6.16a1.782 1.782 0 0 1 1.647 3.16 1.75 1.75 0 0 1-.822.21 1.771 1.771 0 0 1-1.572-.96 1.794 1.794 0 0 1 .74-2.41zm5.7 6.27a1.8 1.8 0 0 1-.454 2.49 1.782 1.782 0 1 1 .451-2.49zm.286-30.84h-.093a1.821 1.821 0 1 1 .09 0zm.323 6.65c-.059 0-.115.01-.175.01a1.792 1.792 0 1 1 .171-.01zm.532 3.05a1.768 1.768 0 0 1 2.156 1.28 1.8 1.8 0 0 1-1.279 2.18 2.232 2.232 0 0 1-.44.05 1.784 1.784 0 0 1-.44-3.51zm2.8 26.22a1.793 1.793 0 0 1-.154 2.52 1.778 1.778 0 0 1-2.5-.16 1.8 1.8 0 0 1 .156-2.52 1.764 1.764 0 0 1 2.496.16zm-.976-48.91a1.7 1.7 0 0 1-.62-.12 1.788 1.788 0 0 1-1.04-2.3 1.766 1.766 0 0 1 2.281-1.04 1.788 1.788 0 0 1-.623 3.46zm-.9 31.42a1.775 1.775 0 1 1 2.326.95 1.9 1.9 0 0 1-.7.14 1.776 1.776 0 0 1-1.624-1.09zm3.746 3.7a1.755 1.755 0 0 1 2.442.57 1.785 1.785 0 0 1-1.5 2.73 1.763 1.763 0 0 1-1.508-.85 1.785 1.785 0 0 1 .568-2.45zm2.645 18.35a1.794 1.794 0 0 1 .147 2.52 1.765 1.765 0 0 1-2.5.15 1.8 1.8 0 0 1-.147-2.52 1.766 1.766 0 0 1 2.502-.15zm1.045-12.82a1.766 1.766 0 0 1 2.5.19 1.8 1.8 0 0 1-.194 2.52 1.756 1.756 0 0 1-2.5-.2 1.785 1.785 0 0 1 .198-2.51zm3.983 16.81a1.786 1.786 0 0 1-1.012 3.25 1.718 1.718 0 0 1-1.009-.32 1.788 1.788 0 0 1-.447-2.48 1.768 1.768 0 0 1 2.47-.45zm.494-11.91a1.766 1.766 0 0 1 2.5-.19 1.8 1.8 0 0 1 .183 2.52 1.764 1.764 0 0 1-2.5.19 1.8 1.8 0 0 1-.181-2.52zm4.971 15.26a1.785 1.785 0 0 1-.83 3.36 1.768 1.768 0 0 1-.828-.21 1.792 1.792 0 0 1-.74-2.41 1.77 1.77 0 0 1 2.4-.74zm.189-11.09a1.754 1.754 0 0 1 2.443-.56 1.791 1.791 0 0 1 .561 2.46 1.768 1.768 0 0 1-1.506.83 1.7 1.7 0 0 1-.938-.27 1.789 1.789 0 0 1-.558-2.46zm5.632 13.75a1.785 1.785 0 0 1-.634 3.45 1.756 1.756 0 0 1-.631-.12 1.785 1.785 0 0 1-1.024-2.3 1.756 1.756 0 0 1 2.291-1.03zm.09-10.41a1.756 1.756 0 0 1 2.33-.93 1.785 1.785 0 0 1-.7 3.42 1.756 1.756 0 0 1-.7-.15 1.784 1.784 0 0 1-.928-2.34zm6.013 12.34a1.782 1.782 0 0 1-.426 3.51 1.589 1.589 0 0 1-.43-.05 1.782 1.782 0 0 1 .858-3.46zm.149-9.92a1.774 1.774 0 1 1 1.716 2.24 1.729 1.729 0 0 1-.447-.06 1.792 1.792 0 0 1-1.267-2.18zm6.143 11.09a1.782 1.782 0 0 1-.216 3.55 1.562 1.562 0 0 1-.216-.01 1.783 1.783 0 0 1 .434-3.54zm.314-9.64a1.773 1.773 0 1 1 1.766 1.96 1.142 1.142 0 0 1-.183-.01 1.776 1.776 0 0 1-1.581-1.95zm6.072 10.04a1.785 1.785 0 0 1 0 3.57 1.785 1.785 0 0 1 .002-3.57zm.53-9.6a1.772 1.772 0 1 1 1.858 1.69c-.031 0-.059.01-.09.01a1.782 1.782 0 0 1-1.766-1.7zm-5.757-10.1a1.787 1.787 0 0 1 .278-3.55 5.541 5.541 0 0 1 10.234.03 1.773 1.773 0 0 1 1.6 1.5 1.8 1.8 0 0 1-1.331 2.01 5.546 5.546 0 0 1-10.779.01zm7.4-1.36a2.009 2.009 0 1 0-2.008 2.02 2.02 2.02 0 0 0 2.007-2.02zm4.222 20.69a1.787 1.787 0 0 1 .41 3.55 1.477 1.477 0 0 1-.21.01 1.787 1.787 0 0 1-.201-3.56zm.73-9.79a1.776 1.776 0 1 1 2.09 1.39 1.472 1.472 0 0 1-.36.04 1.771 1.771 0 0 1-1.731-1.43zm5.57 8.66a1.784 1.784 0 0 1 .83 3.47 2.007 2.007 0 0 1-.42.05 1.786 1.786 0 0 1-.411-3.52zm.86-10.21a1.777 1.777 0 1 1 2.28 1.05 1.655 1.655 0 0 1-.61.12 1.783 1.783 0 0 1-1.671-1.17zm2.38-13.45a1.788 1.788 0 0 1 .54-2.46 1.762 1.762 0 0 1 2.45.55 1.8 1.8 0 0 1-.54 2.46 1.764 1.764 0 0 1-2.451-.55zm2.88 21.77a1.765 1.765 0 0 1 2.28 1.04 1.8 1.8 0 0 1-1.04 2.3 1.668 1.668 0 0 1-.62.12 1.788 1.788 0 0 1-.621-3.46zm.87-10.85a1.775 1.775 0 1 1 2.41.69 1.709 1.709 0 0 1-.86.23 1.752 1.752 0 0 1-1.551-.92zm4.97 8.22a1.765 1.765 0 0 1 2.39.76 1.787 1.787 0 0 1-.75 2.41 1.837 1.837 0 0 1-.82.2 1.788 1.788 0 0 1-.821-3.37zm.7-11.66a1.79 1.79 0 0 1 .31-2.5 1.779 1.779 0 1 1 1.09 3.2 1.752 1.752 0 0 1-1.401-.7zm1.97-56.21a1.785 1.785 0 0 1-1.41 2.86 1.753 1.753 0 0 1-1.42-.72 1.794 1.794 0 0 1 .35-2.5 1.761 1.761 0 0 1 2.479.36zm-3.48 44.92a1.763 1.763 0 0 1-2.51-.03 1.793 1.793 0 0 1 .03-2.52 1.763 1.763 0 0 1 2.51.03 1.793 1.793 0 0 1-.031 2.52zm-10.66 5.2a1.787 1.787 0 0 1-1.04 2.3 1.745 1.745 0 0 1-2.28-1.04 1.776 1.776 0 1 1 3.319-1.26zm-22.854 1.22a1.8 1.8 0 0 1-2.291 1.03 1.8 1.8 0 0 1-1.02-2.31 1.773 1.773 0 0 1 2.29-1.03 1.8 1.8 0 0 1 1.02 2.31zm-6.585-5.15a1.8 1.8 0 0 1 .53 2.47 1.77 1.77 0 0 1-1.491.82 1.7 1.7 0 0 1-.958-.29 1.781 1.781 0 0 1 1.918-3zm-6.06-48.93a1.8 1.8 0 0 1 .165-2.52 1.767 1.767 0 0 1 2.5.17 1.8 1.8 0 0 1-.167 2.52 1.765 1.765 0 0 1-2.499-.17zm1.184 45.01a1.786 1.786 0 0 1 .022 2.52 1.744 1.744 0 0 1-1.265.53 1.723 1.723 0 0 1-1.241-.51 1.788 1.788 0 0 1-.02-2.52 1.767 1.767 0 0 1 2.503-.02zm-3.284-42.74a1.781 1.781 0 1 1-2.483.35 1.757 1.757 0 0 1 2.482-.35zm-3.733 5.5a1.789 1.789 0 0 1-.76 3.4 1.724 1.724 0 0 1-.758-.18 1.784 1.784 0 0 1-.844-2.37 1.755 1.755 0 0 1 2.363-.85zm-2.539 6.15a1.786 1.786 0 0 1-.411 3.52 1.944 1.944 0 0 1-.414-.05 1.783 1.783 0 0 1 .824-3.47zm-3.052 8.27a1.774 1.774 0 1 1 1.773 1.84h-.05a1.783 1.783 0 0 1-1.724-1.84zm.508 7a1.773 1.773 0 1 1 2.054 1.45c-.1.01-.207.02-.309.02a1.779 1.779 0 0 1-1.746-1.47zm8.119 10.98a1.788 1.788 0 0 1-.489 2.47 1.7 1.7 0 0 1-.983.3 1.774 1.774 0 0 1-1.475-.79 1.8 1.8 0 0 1 .489-2.48 1.772 1.772 0 0 1 2.457.5zm-3.9-3.24a1.7 1.7 0 0 1-.659.13 1.782 1.782 0 1 1 1.644-2.45 1.789 1.789 0 0 1-.983 2.32zm13.421-40.16a1.783 1.783 0 1 1 .867-.23 1.705 1.705 0 0 1-.865.23zm6.058-2.65a1.765 1.765 0 0 1-1.691-1.25 1.773 1.773 0 1 1 2.226 1.17 1.659 1.659 0 0 1-.533.08zm12.888-1.33a1.768 1.768 0 1 1 .187.01c-.059 0-.12-.01-.189-.01zm19.378 30.41a22.573 22.573 0 1 1-22.57-22.73 22.669 22.669 0 0 1 22.57 22.73zm-22.57-19.16a19.16 19.16 0 1 0 19.03 19.16 19.118 19.118 0 0 0-19.03-19.16zm13.23 20.95a1.784 1.784 0 0 1-1.77-1.79 11.515 11.515 0 0 0-11.46-11.54 1.785 1.785 0 0 1 0-3.57 15.083 15.083 0 0 1 15.01 15.11 1.786 1.786 0 0 1-1.78 1.79zm13.44 18.07a1.778 1.778 0 0 1-1.47-2.78 1.763 1.763 0 0 1 2.46-.48 1.785 1.785 0 0 1 .48 2.48 1.758 1.758 0 0 1-1.47.78zm1.47-8.32a1.794 1.794 0 1 1 .97 2.32 1.775 1.775 0 0 1-.97-2.32zm4.3 33.02a1.784 1.784 0 0 1-.46 2.48 1.761 1.761 0 0 1-2.46-.47 1.793 1.793 0 0 1 .46-2.48 1.761 1.761 0 0 1 2.46.47zm-2.17-13.07a1.793 1.793 0 0 1-.06-2.52 1.772 1.772 0 0 1 2.51-.06 1.793 1.793 0 0 1 .06 2.52 1.753 1.753 0 0 1-2.51.06zm.63-40.63a1.775 1.775 0 0 1 2.13 1.33 1.8 1.8 0 0 1-1.32 2.15 1.915 1.915 0 0 1-.41.05 1.79 1.79 0 0 1-.4-3.53zm1.05 13.21a1.786 1.786 0 0 1-.32 3.54 1.816 1.816 0 0 1-.32-.03 1.784 1.784 0 0 1 .64-3.51zm5.58 36.23a1.775 1.775 0 0 1-.16 2.51 1.735 1.735 0 0 1-1.17.45 1.77 1.77 0 0 1-1.33-.61 1.8 1.8 0 0 1 .16-2.52 1.763 1.763 0 0 1 2.5.17zm-.08-21.77a1.761 1.761 0 0 1 2.37-.81 1.789 1.789 0 0 1 .81 2.39 1.774 1.774 0 0 1-2.37.81 1.792 1.792 0 0 1-.81-2.39zm4.63 16.92a1.8 1.8 0 0 1 .14 2.52 1.759 1.759 0 0 1-1.33.6 1.779 1.779 0 0 1-1.18-.45 1.807 1.807 0 0 1-.14-2.53 1.784 1.784 0 0 1 2.51-.14zm-.58-20.52a1.89 1.89 0 0 1-.53-.08 1.772 1.772 0 1 1 .53.08zm1.76-10.03a1.787 1.787 0 0 1-.27 3.55 2.645 2.645 0 0 1-.27-.02 1.786 1.786 0 0 1 .54-3.53zm0-9.75a1.229 1.229 0 0 1-.27.02 1.772 1.772 0 0 1-1.75-1.51 1.776 1.776 0 1 1 2.02 1.49zm.23 6.66a1.785 1.785 0 1 1 1.77-1.78 1.775 1.775 0 0 1-1.77 1.78zm2.52 28.29a1.781 1.781 0 0 1 .44 2.48 1.751 1.751 0 0 1-1.45.77 1.833 1.833 0 0 1-1.02-.32 1.8 1.8 0 0 1-.44-2.49 1.761 1.761 0 0 1 2.47-.44zm.87-5.05a1.787 1.787 0 1 1 .74 2.41 1.774 1.774 0 0 1-.74-2.41zm2.66-5.86a1.758 1.758 0 0 1 2.29-1.02 1.786 1.786 0 0 1-.64 3.45 1.776 1.776 0 0 1-1.65-2.43zm1.93-6.14a1.774 1.774 0 1 1 1.72 2.22 2.1 2.1 0 0 1-.43-.05 1.788 1.788 0 0 1-1.29-2.17z" transform="translate(-898 -1273)"/></svg>