<svg xmlns="http://www.w3.org/2000/svg" xmlns:xlink="http://www.w3.org/1999/xlink" width="300" height="642" viewBox="0 0 300 642"><symbol id="a" viewBox="-368 -787 735 1573"><path fill-rule="evenodd" clip-rule="evenodd" fill="#FFF" d="M-260 778h527c55.2 0 100-44.8 100-100V-687c0-55.2-44.8-100-100-100h-527c-55.2 0-100 44.8-100 100V678c0 55.2 44.8 100 100 100z"/><path fill="#636363" d="M267 775c53.5 0 97-43.5 97-97V-687c0-53.5-43.5-97-97-97h-527c-53.5 0-97 43.5-97 97V678c0 53.5 43.5 97 97 97h527m0 3h-527c-55.2 0-100-44.8-100-100V-687c0-55.2 44.8-100 100-100h527c55.2 0 100 44.8 100 100V678c0 55.2-44.8 100-100 100z"/><path fill-rule="evenodd" clip-rule="evenodd" d="M57.5 659h-107c-4.1 0-7.5-3.4-7.5-7.5s3.4-7.5 7.5-7.5h107c4.1 0 7.5 3.4 7.5 7.5s-3.4 7.5-7.5 7.5zM3 704c4.4 0 8 3.6 8 8s-3.6 8-8 8-8-3.6-8-8 3.6-8 8-8zm128 82v-8h124v8H131zm-499-287h8v70h-8v-70zm0-135h8v55h-8v-55zm0-132h8v55h-8v-55z"/><path fill-rule="evenodd" clip-rule="evenodd" fill="#666" d="M3.5-616.5c35.1 0 63.5-28.4 63.5-63.5s-28.4-63.5-63.5-63.5S-60-715.1-60-680s28.4 63.5 63.5 63.5z"/><path fill="#FFF" d="M16-659c4.4 0 8-3.6 8-8v-25c0-4.4-3.6-8-8-8H-9c-4.4 0-8 3.6-8 8v25c0 4.4 3.6 8 8 8h25m0 4H-9c-6.6 0-12-5.4-12-12v-25c0-6.6 5.4-12 12-12h25c6.6 0 12 5.4 12 12v25c0 6.6-5.4 12-12 12z"/><path fill-rule="evenodd" clip-rule="evenodd" fill="#FFF" d="M-318 562h640V-574h-640V562z"/><path d="M323-574h-641V563h641V-574zm-640 1h639V562h-639V-573z"/></symbol><use xlink:href="#a" width="735" height="1573" x="-368" y="-787" transform="matrix(.4082 0 0 -.4082 150.204 320.816)" overflow="visible"/></svg>