<svg xmlns="http://www.w3.org/2000/svg" width="147.094" height="105.69" viewBox="0 0 147.094 105.69"><path fill="#37bbc7" d="M63.579 4.69a4.628 4.628 0 0 0-2.122 1.1 7.289 7.289 0 0 0-.92 3 .211.211 0 0 1-.418 0 7.272 7.272 0 0 0-.921-3 4.624 4.624 0 0 0-2.121-1.1.206.206 0 0 1-.158-.2.217.217 0 0 1 .158-.21 4.624 4.624 0 0 0 2.121-1.1 7.237 7.237 0 0 0 .92-3 .212.212 0 0 1 .419 0 7.237 7.237 0 0 0 .92 3 4.628 4.628 0 0 0 2.122 1.1.218.218 0 0 1 .158.21.207.207 0 0 1-.158.2zM27.137 70.07c-3.4.89-6.731 2.45-8.642 4.48-1.673 1.78-2.968 7.18-3.751 12.24a.862.862 0 0 1-1.7 0c-.784-5.06-2.078-10.46-3.751-12.24-1.912-2.03-5.238-3.59-8.642-4.48a.845.845 0 0 1-.644-.83.857.857 0 0 1 .644-.84c3.4-.89 6.73-2.45 8.642-4.48 1.672-1.77 2.967-7.17 3.75-12.24a.862.862 0 0 1 1.7 0c.783 5.07 2.079 10.47 3.751 12.24 1.912 2.03 5.237 3.59 8.642 4.48a.859.859 0 0 1 .645.84.847.847 0 0 1-.644.83zm119.7 28.28a7.911 7.911 0 0 0-3.634 1.88c-.7.75-1.248 3.02-1.578 5.15a.362.362 0 0 1-.716 0c-.33-2.13-.874-4.4-1.577-5.15a7.92 7.92 0 0 0-3.635-1.88.362.362 0 0 1 0-.7 7.93 7.93 0 0 0 3.635-1.89c.7-.74 1.247-3.01 1.577-5.14a.362.362 0 0 1 .716 0c.33 2.13.874 4.4 1.578 5.14a7.921 7.921 0 0 0 3.634 1.89.362.362 0 0 1-.002.7zm-42.6-83.17a11.255 11.255 0 0 0-5.161 2.67c-1 1.06-1.771 4.29-2.239 7.31a.514.514 0 0 1-1.017 0c-.468-3.02-1.241-6.25-2.239-7.31a11.262 11.262 0 0 0-5.16-2.67.517.517 0 0 1 0-1 11.262 11.262 0 0 0 5.16-2.67c1-1.06 1.771-4.29 2.239-7.31a.514.514 0 0 1 1.017 0c.468 3.02 1.241 6.25 2.239 7.31a11.255 11.255 0 0 0 5.161 2.67.517.517 0 0 1-.001 1z"/></svg>