<svg xmlns="http://www.w3.org/2000/svg" width="112.281" height="89.03" viewBox="0 0 112.281 89.03"><path fill="#37bbc7" d="M50.027 28.56a5.134 5.134 0 0 0-2.326 1.2 7.984 7.984 0 0 0-1.009 3.3.233.233 0 0 1-.458 0 7.984 7.984 0 0 0-1.009-3.3 5.134 5.134 0 0 0-2.326-1.2.235.235 0 0 1-.173-.23.224.224 0 0 1 .173-.22 5.049 5.049 0 0 0 2.326-1.21 7.981 7.981 0 0 0 1.009-3.29.231.231 0 0 1 .458 0 7.981 7.981 0 0 0 1.009 3.29 5.049 5.049 0 0 0 2.326 1.21.224.224 0 0 1 .174.22.236.236 0 0 1-.174.23m21.208 56.19a4.628 4.628 0 0 0-2.122 1.1 7.289 7.289 0 0 0-.92 3 .211.211 0 0 1-.418 0 7.272 7.272 0 0 0-.921-3 4.624 4.624 0 0 0-2.121-1.1.206.206 0 0 1-.158-.2.217.217 0 0 1 .158-.21 4.624 4.624 0 0 0 2.121-1.1 7.25 7.25 0 0 0 .921-3 .211.211 0 0 1 .418 0 7.237 7.237 0 0 0 .92 3 4.628 4.628 0 0 0 2.122 1.1.218.218 0 0 1 .158.21.207.207 0 0 1-.158.2zm40.657-19.51a11.255 11.255 0 0 0-5.161 2.67c-1 1.06-1.771 4.29-2.239 7.31a.514.514 0 0 1-1.017 0c-.468-3.02-1.241-6.25-2.239-7.31a11.262 11.262 0 0 0-5.16-2.67.517.517 0 0 1 0-1 11.262 11.262 0 0 0 5.16-2.67c1-1.06 1.771-4.29 2.239-7.31a.514.514 0 0 1 1.017 0c.468 3.02 1.241 6.25 2.239 7.31a11.255 11.255 0 0 0 5.161 2.67.517.517 0 0 1 0 1zM15.156 10.66a10.475 10.475 0 0 0-4.822 2.5c-.933.99-1.656 4-2.093 6.83a.48.48 0 0 1-.95 0c-.437-2.83-1.16-5.84-2.093-6.83a10.475 10.475 0 0 0-4.822-2.5.477.477 0 0 1-.359-.47.465.465 0 0 1 .359-.46 10.569 10.569 0 0 0 4.822-2.5C6.131 6.24 6.853 3.22 7.29.4a.481.481 0 0 1 .951 0c.437 2.82 1.16 5.84 2.093 6.83a10.569 10.569 0 0 0 4.822 2.5.465.465 0 0 1 .359.46.477.477 0 0 1-.359.47z"/></svg>