<svg id="Группа_1" data-name="Группа 1" xmlns="http://www.w3.org/2000/svg" width="104" height="105" viewBox="0 0 104 105"><defs><style>.cls-1{fill:#62347e;fill-opacity:.6;filter:url(#filter)}.cls-2,.cls-4{fill:#fff}.cls-2,.cls-3,.cls-4{fill-rule:evenodd}.cls-3{fill:#ffd11a}.cls-4{filter:url(#filter-2)}</style><filter id="filter" x="9" y="9" width="86" height="87" filterUnits="userSpaceOnUse"><feOffset result="offset" dy="1" in="SourceAlpha"/><feGaussianBlur result="blur"/><feFlood result="flood" flood-color="#141312" flood-opacity=".3"/><feComposite result="composite" operator="in" in2="blur"/><feBlend result="blend" in="SourceGraphic"/></filter><filter id="filter-2" x="117" y="2065" width="104" height="105" filterUnits="userSpaceOnUse"><feOffset result="offset" dy="1" in="SourceAlpha"/><feGaussianBlur result="blur"/><feFlood result="flood" flood-color="#141312" flood-opacity=".3"/><feComposite result="composite" operator="in" in2="blur"/><feBlend result="blend" in="SourceGraphic"/></filter></defs><rect id="bg" class="cls-1" x="9" y="9" width="86" height="86" rx="15" ry="15"/><path id="border" class="cls-2" d="M196.256 2075.98h-54.514a13.008 13.008 0 0 0-13.757 13.76v54.52a12.992 12.992 0 0 0 13.757 13.75h54.514a12.995 12.995 0 0 0 13.758-13.75v-54.52a13.007 13.007 0 0 0-13.758-13.76m-54.7-1.99h54.888a15.6 15.6 0 0 1 15.567 15.57v54.88a15.6 15.6 0 0 1-15.567 15.57h-54.889a15.6 15.6 0 0 1-15.566-15.57v-54.88a15.6 15.6 0 0 1 15.566-15.57z" transform="translate(-117 -2065)"/><path id="icon" class="cls-3" d="M161.966 2152.99a1.019 1.019 0 0 0 1.127-.91L164 2146h11l.908 6.08a1.024 1.024 0 0 0 2.038-.21l-.7-6.68a1.028 1.028 0 0 0-1.019-.92h-.452l2.188-7.97a1.019 1.019 0 0 0-.14-.84l-7.474-11a1 1 0 0 0-.848-.45 1.027 1.027 0 0 0-.725.3.7.7 0 0 0-.124.15l-7.472 11a1.016 1.016 0 0 0-.141.84l2.187 7.97h-.452a1.007 1.007 0 0 0-.724.3 1.035 1.035 0 0 0-.3.62l-.7 6.68a1.016 1.016 0 0 0 .912 1.12zM163 2136l5.47-7.63-.014 8.8a2.794 2.794 0 0 0-.931.61 2.729 2.729 0 0 0-.809 1.95 2.762 2.762 0 0 0 4.716 1.95 2.752 2.752 0 0 0 0-3.9 2.778 2.778 0 0 0-.927-.61l.014-8.82L176 2136l-3 8h-7zm6.478 3.02a.71.71 0 1 1 0 1.42.713.713 0 0 1-.713-.71.715.715 0 0 1 .712-.71zM193 2084a2.61 2.61 0 0 0-2 2v5a2.61 2.61 0 0 0 2 2h1a25.2 25.2 0 0 1-20 20v-1a2.61 2.61 0 0 0-2-2h-5a2.61 2.61 0 0 0-2 2v1c-9.928-1.83-17.206-9.92-19-20h1a2.612 2.612 0 0 0 2-2v-5a2.612 2.612 0 0 0-2-2h-5a2.61 2.61 0 0 0-2 2v5a2.61 2.61 0 0 0 2 2h1a27.972 27.972 0 0 0 7.7 14.74 26.811 26.811 0 0 0 7.3 5.26h-10a1.837 1.837 0 0 0-1.681-.89 2.44 2.44 0 0 0 0 4.88A1.924 1.924 0 0 0 148 2116h17v1a2.61 2.61 0 0 0 2 2h5a2.61 2.61 0 0 0 2-2v-1l17.744-.01a2.415 2.415 0 1 0 1.937-3.88 1.837 1.837 0 0 0-1.681.89h-10a26.882 26.882 0 0 0 7.31-5.27A28.008 28.008 0 0 0 197 2093h1a2.61 2.61 0 0 0 2-2v-5a2.61 2.61 0 0 0-2-2m-55 3h3v3h-3v-3zm28 29h-3v-3h3v3zm26-26h-3v-3h3v3z" transform="translate(-117 -2065)"/><path id="corners" class="cls-4" d="M118.732 2089.26a.867.867 0 0 1-1.734 0 24.284 24.284 0 0 1 24.258-24.26.865.865 0 1 1 0 1.73 22.561 22.561 0 0 0-22.524 22.53m22.524 78.01a.865.865 0 1 1 0 1.73A24.284 24.284 0 0 1 117 2144.74a.867.867 0 1 1 1.734 0 22.561 22.561 0 0 0 22.522 22.53zm78.011-22.53a.867.867 0 1 1 1.734 0 24.3 24.3 0 0 1-24.259 24.26.865.865 0 1 1 0-1.73 22.563 22.563 0 0 0 22.525-22.53zm-22.525-78.01a.865.865 0 1 1 0-1.73A24.284 24.284 0 0 1 221 2089.26a.867.867 0 0 1-1.734 0 22.561 22.561 0 0 0-22.524-22.53z" transform="translate(-117 -2065)"/></svg>