<svg id="Group_5_copy" data-name="Group 5 copy" xmlns="http://www.w3.org/2000/svg" width="104" height="105" viewBox="0 0 104 105"><defs><style>.cls-1{fill:#62347e;fill-opacity:.6;filter:url(#filter)}.cls-1,.cls-2,.cls-3,.cls-4{fill-rule:evenodd}.cls-2,.cls-4{fill:#fff}.cls-3{fill:#ffd11a}.cls-4{filter:url(#filter-2)}</style><filter id="filter" x="383" y="2074" width="86" height="87" filterUnits="userSpaceOnUse"><feOffset result="offset" dy="1" in="SourceAlpha"/><feGaussianBlur result="blur"/><feFlood result="flood" flood-color="#141312" flood-opacity=".3"/><feComposite result="composite" operator="in" in2="blur"/><feBlend result="blend" in="SourceGraphic"/></filter><filter id="filter-2" x="374" y="2065" width="104" height="105" filterUnits="userSpaceOnUse"><feOffset result="offset" dy="1" in="SourceAlpha"/><feGaussianBlur result="blur"/><feFlood result="flood" flood-color="#141312" flood-opacity=".3"/><feComposite result="composite" operator="in" in2="blur"/><feBlend result="blend" in="SourceGraphic"/></filter></defs><path id="bg" class="cls-1" d="M398.555 2073.99h54.888a15.6 15.6 0 0 1 15.567 15.57v54.88a15.6 15.6 0 0 1-15.567 15.57h-54.888a15.6 15.6 0 0 1-15.566-15.57v-54.88a15.6 15.6 0 0 1 15.566-15.57z" transform="translate(-374 -2065)"/><path id="widow" class="cls-2" d="M453.256 2075.98h-54.514a13.008 13.008 0 0 0-13.757 13.76v54.52a12.992 12.992 0 0 0 13.757 13.75h54.514a12.995 12.995 0 0 0 13.758-13.75v-54.52a13.007 13.007 0 0 0-13.758-13.76m-54.7-1.99h54.888a15.6 15.6 0 0 1 15.567 15.57v54.88a15.6 15.6 0 0 1-15.567 15.57h-54.889a15.6 15.6 0 0 1-15.566-15.57v-54.88a15.6 15.6 0 0 1 15.566-15.57zM384 2090h84v2h-84v-2zm58-9a2 2 0 1 1-2 2 2 2 0 0 1 2-2zm7 0a2 2 0 1 1-2 2 2 2 0 0 1 2-2zm7 0a2 2 0 1 1-2 2 2 2 0 0 1 2-2z" transform="translate(-374 -2065)"/><path id="icon" class="cls-3" d="M401 2124.53v-.04a2.512 2.512 0 0 1 1.457-2.28l13.141-6a1 1 0 0 1 1.418.92v1.57a1 1 0 0 1-.6.92l-10.219 4.56a.357.357 0 0 0 0 .65l10.223 4.6a1 1 0 0 1 .594.92v1.57a1.008 1.008 0 0 1-1.419.92l-13.144-6.04a2.487 2.487 0 0 1-1.451-2.27zm21.852 11.47h-1.287a1.011 1.011 0 0 1-.954-1.33l7.821-23.98a1 1 0 0 1 .953-.69h1.315a1.01 1.01 0 0 1 .953 1.33l-7.851 23.97a1 1 0 0 1-.95.7zm12.132-4.08v-1.57a1 1 0 0 1 .6-.92l10.253-4.6a.357.357 0 0 0 0-.65l-10.25-4.56a1 1 0 0 1-.6-.92v-1.57a1 1 0 0 1 1.418-.92l13.141 6a2.512 2.512 0 0 1 1.457 2.28v.04a2.487 2.487 0 0 1-1.453 2.27l-13.144 6.04a1.008 1.008 0 0 1-1.422-.92z" transform="translate(-374 -2065)"/><path id="corners" class="cls-4" d="M375.732 2089.26a.867.867 0 0 1-1.734 0 24.284 24.284 0 0 1 24.258-24.26.865.865 0 1 1 0 1.73 22.561 22.561 0 0 0-22.524 22.53m22.524 78.01a.865.865 0 1 1 0 1.73A24.284 24.284 0 0 1 374 2144.74a.867.867 0 1 1 1.734 0 22.561 22.561 0 0 0 22.522 22.53zm78.011-22.53a.867.867 0 1 1 1.734 0 24.3 24.3 0 0 1-24.259 24.26.865.865 0 1 1 0-1.73 22.563 22.563 0 0 0 22.525-22.53zm-22.525-78.01a.865.865 0 1 1 0-1.73A24.284 24.284 0 0 1 478 2089.26a.867.867 0 0 1-1.734 0 22.561 22.561 0 0 0-22.524-22.53z" transform="translate(-374 -2065)"/></svg>