<svg id="Группа_2" data-name="Группа 2" xmlns="http://www.w3.org/2000/svg" width="104" height="105" viewBox="0 0 104 105"><defs><style>.cls-1{fill:#62347e;fill-opacity:.6;filter:url(#filter)}.cls-2,.cls-3{fill:#fff}.cls-2,.cls-3,.cls-4{fill-rule:evenodd}.cls-3{filter:url(#filter-2)}.cls-4{fill:#ffd11a}</style><filter id="filter" x="9" y="9" width="86" height="87" filterUnits="userSpaceOnUse"><feOffset result="offset" dy="1" in="SourceAlpha"/><feGaussianBlur result="blur"/><feFlood result="flood" flood-color="#141312" flood-opacity=".3"/><feComposite result="composite" operator="in" in2="blur"/><feBlend result="blend" in="SourceGraphic"/></filter><filter id="filter-2" x="886" y="2065" width="104" height="105" filterUnits="userSpaceOnUse"><feOffset result="offset" dy="1" in="SourceAlpha"/><feGaussianBlur result="blur"/><feFlood result="flood" flood-color="#141312" flood-opacity=".3"/><feComposite result="composite" operator="in" in2="blur"/><feBlend result="blend" in="SourceGraphic"/></filter></defs><rect id="bg" class="cls-1" x="9" y="9" width="86" height="86" rx="15" ry="15"/><path id="border" class="cls-2" d="M965.256 2075.98h-54.514a13.008 13.008 0 0 0-13.757 13.76v54.52a12.992 12.992 0 0 0 13.757 13.75h54.514a12.995 12.995 0 0 0 13.758-13.75v-54.52a13.007 13.007 0 0 0-13.758-13.76m-54.7-1.99h54.888a15.6 15.6 0 0 1 15.567 15.57v54.88a15.6 15.6 0 0 1-15.567 15.57h-54.889a15.6 15.6 0 0 1-15.566-15.57v-54.88a15.6 15.6 0 0 1 15.566-15.57z" transform="translate(-886 -2065)"/><path id="corners" class="cls-3" d="M887.732 2089.26a.867.867 0 0 1-1.734 0 24.284 24.284 0 0 1 24.258-24.26.865.865 0 1 1 0 1.73 22.561 22.561 0 0 0-22.524 22.53m22.524 78.01a.865.865 0 1 1 0 1.73A24.284 24.284 0 0 1 886 2144.74a.867.867 0 1 1 1.734 0 22.561 22.561 0 0 0 22.522 22.53zm78.011-22.53a.867.867 0 1 1 1.734 0 24.3 24.3 0 0 1-24.259 24.26.865.865 0 1 1 0-1.73 22.563 22.563 0 0 0 22.525-22.53zm-22.525-78.01a.865.865 0 1 1 0-1.73A24.284 24.284 0 0 1 990 2089.26a.867.867 0 0 1-1.734 0 22.561 22.561 0 0 0-22.524-22.53z" transform="translate(-886 -2065)"/><path id="icon" class="cls-4" d="M946.092 2098.12a1.652 1.652 0 0 0-.816-.95 1.692 1.692 0 0 0-1.25-.1l-6.86 2.23a1.634 1.634 0 0 0-1.052 2.06l.343 1.05-17.447 12.78-6.883 2.22a1.659 1.659 0 0 0-.954.82 1.61 1.61 0 0 0-.1 1.24l4.183 12.83a1.64 1.64 0 0 0 1.558 1.13 1.489 1.489 0 0 0 .507-.08l6.882-2.23 3.535.02a7.418 7.418 0 0 0 14.488.08l3.626.02.342 1.05a1.654 1.654 0 0 0 .815.95 1.624 1.624 0 0 0 .745.18 1.748 1.748 0 0 0 .506-.08l6.859-2.22a1.633 1.633 0 0 0 1.053-2.06zm-28.224 31.62l-3.168-9.72 4.015-1.3 3.167 9.72zm17.124 3.99a4.132 4.132 0 0 1-3.829-2.57l7.642.04a4.148 4.148 0 0 1-3.813 2.53zm-9.851-5.87l-1.724-5.29-1.725-5.29 15.832-11.6 4.855 14.9 2.4 7.38zm23.667 1.86l-.2-.61a.034.034 0 0 0 0-.01l-4.332-13.29-4.534-13.91 3.741-1.21 9.068 27.82zm2.805-23.65a1.639 1.639 0 0 0 2.2-.71l2.943-5.76a1.638 1.638 0 1 0-2.922-1.48l-2.943 5.75a1.633 1.633 0 0 0 .717 2.2zm12.323 15.54l-5.775-2.93a1.634 1.634 0 1 0-1.489 2.91l5.775 2.94a1.639 1.639 0 0 0 1.489-2.92zm-8.293-9.48a1.642 1.642 0 0 0 1.559 1.13 1.793 1.793 0 0 0 .507-.08l6.162-2a1.629 1.629 0 0 0 1.052-2.06 1.647 1.647 0 0 0-2.066-1.05l-6.161 2a1.632 1.632 0 0 0-1.053 2.06z" transform="translate(-886 -2065)"/></svg>