<svg xmlns="http://www.w3.org/2000/svg" width="104" height="105" viewBox="0 0 104 105"><defs><style>.cls-1{fill:#62347e;fill-opacity:.6;filter:url(#filter)}.cls-2,.cls-3{fill:#fff}.cls-2,.cls-3,.cls-4{fill-rule:evenodd}.cls-3{filter:url(#filter-2)}.cls-4{fill:#ffd11a}</style><filter id="filter" x="9" y="9" width="86" height="87" filterUnits="userSpaceOnUse"><feOffset result="offset" dy="1" in="SourceAlpha"/><feGaussianBlur result="blur"/><feFlood result="flood" flood-color="#141312" flood-opacity=".3"/><feComposite result="composite" operator="in" in2="blur"/><feBlend result="blend" in="SourceGraphic"/></filter><filter id="filter-2" x="1146" y="2065" width="104" height="105" filterUnits="userSpaceOnUse"><feOffset result="offset" dy="1" in="SourceAlpha"/><feGaussianBlur result="blur"/><feFlood result="flood" flood-color="#141312" flood-opacity=".3"/><feComposite result="composite" operator="in" in2="blur"/><feBlend result="blend" in="SourceGraphic"/></filter></defs><rect id="bg" class="cls-1" x="9" y="9" width="86" height="86" rx="15" ry="15"/><path id="border" class="cls-2" d="M1225.26 2075.98h-54.52a13 13 0 0 0-13.75 13.76v54.52a12.987 12.987 0 0 0 13.75 13.75h54.52a12.987 12.987 0 0 0 13.75-13.75v-54.52a13 13 0 0 0-13.75-13.76m-54.7-1.99h54.88a15.6 15.6 0 0 1 15.57 15.57v54.88a15.6 15.6 0 0 1-15.57 15.57h-54.88a15.6 15.6 0 0 1-15.57-15.57v-54.88a15.6 15.6 0 0 1 15.57-15.57z" transform="translate(-1146 -2065)"/><path id="corners" class="cls-3" d="M1147.73 2089.26a.865.865 0 0 1-1.73 0 24.275 24.275 0 0 1 24.26-24.26.865.865 0 0 1 0 1.73 22.568 22.568 0 0 0-22.53 22.53m22.53 78.01a.865.865 0 0 1 0 1.73 24.275 24.275 0 0 1-24.26-24.26.865.865 0 1 1 1.73 0 22.568 22.568 0 0 0 22.53 22.53zm78.01-22.53a.865.865 0 1 1 1.73 0 24.292 24.292 0 0 1-24.26 24.26.865.865 0 0 1 0-1.73 22.568 22.568 0 0 0 22.53-22.53zm-22.53-78.01a.865.865 0 0 1 0-1.73 24.275 24.275 0 0 1 24.26 24.26.865.865 0 0 1-1.73 0 22.568 22.568 0 0 0-22.53-22.53z" transform="translate(-1146 -2065)"/><g id="icon"><path id="markers" class="cls-2" d="M1216.26 2130.19a6.8 6.8 0 1 0 6.98 6.8 6.9 6.9 0 0 0-6.98-6.8zm0 10.43a3.636 3.636 0 1 1 3.73-3.63 3.684 3.684 0 0 1-3.73 3.63zm-24.86-31.74a6.982 6.982 0 1 0-6.98 6.8 6.9 6.9 0 0 0 6.98-6.8zm-10.71 0a3.731 3.731 0 1 1 3.73 3.64 3.684 3.684 0 0 1-3.73-3.64zm-11.92-10.76l2.47-2.4 2.46 2.4a1.634 1.634 0 0 0 1.15.46 1.651 1.651 0 0 0 1.15-.46 1.552 1.552 0 0 0 0-2.23l-2.47-2.4 2.47-2.4a1.564 1.564 0 0 0 0-2.24 1.655 1.655 0 0 0-2.3 0l-2.46 2.4-2.47-2.4a1.642 1.642 0 0 0-2.29 0 1.547 1.547 0 0 0 0 2.24l2.46 2.4-2.46 2.4a1.535 1.535 0 0 0 0 2.23 1.611 1.611 0 0 0 1.14.46 1.634 1.634 0 0 0 1.15-.46zm58.27-6.02l2.46-2.4a1.547 1.547 0 0 0 0-2.24 1.662 1.662 0 0 0-2.29 0l-2.47 2.4-2.46-2.4a1.674 1.674 0 0 0-2.3 0 1.564 1.564 0 0 0 0 2.24l2.47 2.4-2.47 2.4a1.552 1.552 0 0 0 0 2.23 1.662 1.662 0 0 0 1.15.47 1.645 1.645 0 0 0 1.15-.47l2.46-2.4 2.47 2.4a1.63 1.63 0 0 0 2.29 0 1.535 1.535 0 0 0 0-2.23zm-.78 20.27a1.655 1.655 0 0 0-2.3 0l-2.46 2.4-2.47-2.4a1.642 1.642 0 0 0-2.29 0 1.547 1.547 0 0 0 0 2.24l2.46 2.4-2.46 2.4a1.535 1.535 0 0 0 0 2.23 1.655 1.655 0 0 0 2.29 0l2.47-2.4 2.46 2.4a1.634 1.634 0 0 0 1.15.46 1.651 1.651 0 0 0 1.15-.46 1.552 1.552 0 0 0 0-2.23l-2.47-2.4 2.47-2.4a1.564 1.564 0 0 0 0-2.24zm-49.51 11.38a1.642 1.642 0 0 0-2.29 0l-2.47 2.4-2.46-2.4a1.655 1.655 0 0 0-2.3 0 1.564 1.564 0 0 0 0 2.24l2.47 2.4-2.47 2.4a1.552 1.552 0 0 0 0 2.23 1.651 1.651 0 0 0 1.15.46 1.634 1.634 0 0 0 1.15-.46l2.46-2.4 2.47 2.4a1.655 1.655 0 0 0 2.29 0 1.535 1.535 0 0 0 0-2.23l-2.46-2.4 2.46-2.4a1.547 1.547 0 0 0 0-2.24z" transform="translate(-1146 -2065)"/><path id="path" class="cls-4" d="M1211.3 2097.31a6.982 6.982 0 1 0-8.63 6.61c-.3 9.67-3.69 12.68-7.27 15.85-3.6 3.19-7.31 6.48-7.28 15.83a7 7 0 1 0 3.25-.01c-.03-7.95 2.88-10.52 6.21-13.48 3.76-3.33 8-7.09 8.34-18.18a6.858 6.858 0 0 0 5.38-6.62z" transform="translate(-1146 -2065)"/></g></svg>